<svg id="visual" viewBox="0 0 1920 1080" width="1920" height="1080" xmlns="http://www.w3.org/2000/svg" xmlns:xlink="http://www.w3.org/1999/xlink" version="1.1"><rect x="0" y="0" width="1920" height="1080" fill="#001220"></rect><defs><linearGradient id="grad1_0" x1="43.8%" y1="0%" x2="100%" y2="100%"><stop offset="14.444444444444446%" stop-color="#7b2cbf" stop-opacity="1"></stop><stop offset="85.55555555555554%" stop-color="#7b2cbf" stop-opacity="1"></stop></linearGradient></defs><defs><linearGradient id="grad1_1" x1="43.8%" y1="0%" x2="100%" y2="100%"><stop offset="14.444444444444446%" stop-color="#7b2cbf" stop-opacity="1"></stop><stop offset="85.55555555555554%" stop-color="#5434af" stop-opacity="1"></stop></linearGradient></defs><defs><linearGradient id="grad1_2" x1="43.8%" y1="0%" x2="100%" y2="100%"><stop offset="14.444444444444446%" stop-color="#2d359b" stop-opacity="1"></stop><stop offset="85.55555555555554%" stop-color="#5434af" stop-opacity="1"></stop></linearGradient></defs><defs><linearGradient id="grad1_3" x1="43.8%" y1="0%" x2="100%" y2="100%"><stop offset="14.444444444444446%" stop-color="#2d359b" stop-opacity="1"></stop><stop offset="85.55555555555554%" stop-color="#003285" stop-opacity="1"></stop></linearGradient></defs><defs><linearGradient id="grad1_4" x1="43.8%" y1="0%" x2="100%" y2="100%"><stop offset="14.444444444444446%" stop-color="#002d6c" stop-opacity="1"></stop><stop offset="85.55555555555554%" stop-color="#003285" stop-opacity="1"></stop></linearGradient></defs><defs><linearGradient id="grad1_5" x1="43.8%" y1="0%" x2="100%" y2="100%"><stop offset="14.444444444444446%" stop-color="#002d6c" stop-opacity="1"></stop><stop offset="85.55555555555554%" stop-color="#002552" stop-opacity="1"></stop></linearGradient></defs><defs><linearGradient id="grad1_6" x1="43.8%" y1="0%" x2="100%" y2="100%"><stop offset="14.444444444444446%" stop-color="#001c38" stop-opacity="1"></stop><stop offset="85.55555555555554%" stop-color="#002552" stop-opacity="1"></stop></linearGradient></defs><defs><linearGradient id="grad1_7" x1="43.8%" y1="0%" x2="100%" y2="100%"><stop offset="14.444444444444446%" stop-color="#001c38" stop-opacity="1"></stop><stop offset="85.55555555555554%" stop-color="#001220" stop-opacity="1"></stop></linearGradient></defs><defs><linearGradient id="grad2_0" x1="0%" y1="0%" x2="56.3%" y2="100%"><stop offset="14.444444444444446%" stop-color="#7b2cbf" stop-opacity="1"></stop><stop offset="85.55555555555554%" stop-color="#7b2cbf" stop-opacity="1"></stop></linearGradient></defs><defs><linearGradient id="grad2_1" x1="0%" y1="0%" x2="56.3%" y2="100%"><stop offset="14.444444444444446%" stop-color="#5434af" stop-opacity="1"></stop><stop offset="85.55555555555554%" stop-color="#7b2cbf" stop-opacity="1"></stop></linearGradient></defs><defs><linearGradient id="grad2_2" x1="0%" y1="0%" x2="56.3%" y2="100%"><stop offset="14.444444444444446%" stop-color="#5434af" stop-opacity="1"></stop><stop offset="85.55555555555554%" stop-color="#2d359b" stop-opacity="1"></stop></linearGradient></defs><defs><linearGradient id="grad2_3" x1="0%" y1="0%" x2="56.3%" y2="100%"><stop offset="14.444444444444446%" stop-color="#003285" stop-opacity="1"></stop><stop offset="85.55555555555554%" stop-color="#2d359b" stop-opacity="1"></stop></linearGradient></defs><defs><linearGradient id="grad2_4" x1="0%" y1="0%" x2="56.3%" y2="100%"><stop offset="14.444444444444446%" stop-color="#003285" stop-opacity="1"></stop><stop offset="85.55555555555554%" stop-color="#002d6c" stop-opacity="1"></stop></linearGradient></defs><defs><linearGradient id="grad2_5" x1="0%" y1="0%" x2="56.3%" y2="100%"><stop offset="14.444444444444446%" stop-color="#002552" stop-opacity="1"></stop><stop offset="85.55555555555554%" stop-color="#002d6c" stop-opacity="1"></stop></linearGradient></defs><defs><linearGradient id="grad2_6" x1="0%" y1="0%" x2="56.3%" y2="100%"><stop offset="14.444444444444446%" stop-color="#002552" stop-opacity="1"></stop><stop offset="85.55555555555554%" stop-color="#001c38" stop-opacity="1"></stop></linearGradient></defs><defs><linearGradient id="grad2_7" x1="0%" y1="0%" x2="56.3%" y2="100%"><stop offset="14.444444444444446%" stop-color="#001220" stop-opacity="1"></stop><stop offset="85.55555555555554%" stop-color="#001c38" stop-opacity="1"></stop></linearGradient></defs><g transform="translate(1920, 0)"><path d="M0 1026C-126.4 985.7 -252.8 945.4 -370.4 894.3C-488.1 843.2 -597 781.3 -698.6 698.6C-800.2 616 -894.6 512.5 -947.9 392.6C-1001.2 272.7 -1013.6 136.4 -1026 0L0 0Z" fill="#00172c"></path><path d="M0 897.8C-110.6 862.5 -221.2 827.2 -324.1 782.5C-427.1 737.8 -522.4 683.6 -611.3 611.3C-700.2 539 -782.7 448.5 -829.4 343.6C-876.1 238.6 -886.9 119.3 -897.7 0L0 0Z" fill="#002145"></path><path d="M0 769.5C-94.8 739.3 -189.6 709.1 -277.8 670.7C-366.1 632.4 -447.8 586 -524 524C-600.2 462 -670.9 384.4 -710.9 294.5C-750.9 204.6 -760.2 102.3 -769.5 0L0 0Z" fill="#00295f"></path><path d="M0 641.3C-79 616.1 -158 590.9 -231.5 558.9C-305.1 527 -373.1 488.3 -436.6 436.6C-500.1 385 -559.1 320.3 -592.4 245.4C-625.8 170.5 -633.5 85.2 -641.2 0L0 0Z" fill="#003078"></path><path d="M0 513C-63.2 492.9 -126.4 472.7 -185.2 447.2C-244 421.6 -298.5 390.6 -349.3 349.3C-400.1 308 -447.3 256.3 -474 196.3C-500.6 136.4 -506.8 68.2 -513 0L0 0Z" fill="#163490"></path><path d="M0 384.8C-47.4 369.6 -94.8 354.5 -138.9 335.4C-183 316.2 -223.9 293 -262 262C-300.1 231 -335.5 192.2 -355.5 147.2C-375.5 102.3 -380.1 51.1 -384.7 0L0 0Z" fill="#4035a6"></path><path d="M0 256.5C-31.6 246.4 -63.2 236.4 -92.6 223.6C-122 210.8 -149.3 195.3 -174.7 174.7C-200.1 154 -223.6 128.1 -237 98.2C-250.3 68.2 -253.4 34.1 -256.5 0L0 0Z" fill="#6731b8"></path><path d="M0 128.3C-15.8 123.2 -31.6 118.2 -46.3 111.8C-61 105.4 -74.6 97.7 -87.3 87.3C-100 77 -111.8 64.1 -118.5 49.1C-125.2 34.1 -126.7 17 -128.2 0L0 0Z" fill="#7b2cbf"></path></g><g transform="translate(0, 1080)"><path d="M0 -1026C141.5 -1009.5 283.1 -993.1 381.9 -922C480.8 -851 536.9 -725.3 635.7 -635.7C734.4 -546.1 875.8 -492.6 947.9 -392.6C1020 -292.7 1023 -146.3 1026 0L0 0Z" fill="#00172c"></path><path d="M0 -897.7C123.8 -883.4 247.7 -869 334.2 -806.8C420.7 -744.6 469.8 -634.6 556.2 -556.2C642.6 -477.8 766.3 -431 829.4 -343.6C892.5 -256.1 895.1 -128.1 897.8 0L0 0Z" fill="#002145"></path><path d="M0 -769.5C106.1 -757.2 212.3 -744.8 286.4 -691.5C360.6 -638.2 402.7 -544 476.8 -476.8C550.8 -409.6 656.8 -369.4 710.9 -294.5C765 -219.5 767.3 -109.8 769.5 0L0 0Z" fill="#00295f"></path><path d="M0 -641.2C88.5 -631 176.9 -620.7 238.7 -576.3C300.5 -531.9 335.6 -453.3 397.3 -397.3C459 -341.3 547.3 -307.9 592.4 -245.4C637.5 -182.9 639.4 -91.5 641.3 0L0 0Z" fill="#003078"></path><path d="M0 -513C70.8 -504.8 141.5 -496.5 191 -461C240.4 -425.5 268.5 -362.6 317.8 -317.8C367.2 -273 437.9 -246.3 474 -196.3C510 -146.3 511.5 -73.2 513 0L0 0Z" fill="#163490"></path><path d="M0 -384.7C53.1 -378.6 106.1 -372.4 143.2 -345.8C180.3 -319.1 201.4 -272 238.4 -238.4C275.4 -204.8 328.4 -184.7 355.5 -147.2C382.5 -109.8 383.6 -54.9 384.8 0L0 0Z" fill="#4035a6"></path><path d="M0 -256.5C35.4 -252.4 70.8 -248.3 95.5 -230.5C120.2 -212.7 134.2 -181.3 158.9 -158.9C183.6 -136.5 218.9 -123.1 237 -98.2C255 -73.2 255.8 -36.6 256.5 0L0 0Z" fill="#6731b8"></path><path d="M0 -128.2C17.7 -126.2 35.4 -124.1 47.7 -115.3C60.1 -106.4 67.1 -90.7 79.5 -79.5C91.8 -68.3 109.5 -61.6 118.5 -49.1C127.5 -36.6 127.9 -18.3 128.3 0L0 0Z" fill="#7b2cbf"></path></g></svg>