<svg id="visual" viewBox="0 0 960 500" width="960" height="500" xmlns="http://www.w3.org/2000/svg" xmlns:xlink="http://www.w3.org/1999/xlink" version="1.1"><rect x="0" y="0" width="960" height="500" fill="#001220"></rect><defs><linearGradient id="grad1_0" x1="47.9%" y1="0%" x2="100%" y2="100%"><stop offset="11.600000000000001%" stop-color="#7b2cbf" stop-opacity="1"></stop><stop offset="88.4%" stop-color="#7b2cbf" stop-opacity="1"></stop></linearGradient></defs><defs><linearGradient id="grad1_1" x1="47.9%" y1="0%" x2="100%" y2="100%"><stop offset="11.600000000000001%" stop-color="#7b2cbf" stop-opacity="1"></stop><stop offset="88.4%" stop-color="#5434af" stop-opacity="1"></stop></linearGradient></defs><defs><linearGradient id="grad1_2" x1="47.9%" y1="0%" x2="100%" y2="100%"><stop offset="11.600000000000001%" stop-color="#2d359b" stop-opacity="1"></stop><stop offset="88.4%" stop-color="#5434af" stop-opacity="1"></stop></linearGradient></defs><defs><linearGradient id="grad1_3" x1="47.9%" y1="0%" x2="100%" y2="100%"><stop offset="11.600000000000001%" stop-color="#2d359b" stop-opacity="1"></stop><stop offset="88.4%" stop-color="#003285" stop-opacity="1"></stop></linearGradient></defs><defs><linearGradient id="grad1_4" x1="47.9%" y1="0%" x2="100%" y2="100%"><stop offset="11.600000000000001%" stop-color="#002d6c" stop-opacity="1"></stop><stop offset="88.4%" stop-color="#003285" stop-opacity="1"></stop></linearGradient></defs><defs><linearGradient id="grad1_5" x1="47.9%" y1="0%" x2="100%" y2="100%"><stop offset="11.600000000000001%" stop-color="#002d6c" stop-opacity="1"></stop><stop offset="88.4%" stop-color="#002552" stop-opacity="1"></stop></linearGradient></defs><defs><linearGradient id="grad1_6" x1="47.9%" y1="0%" x2="100%" y2="100%"><stop offset="11.600000000000001%" stop-color="#001c38" stop-opacity="1"></stop><stop offset="88.4%" stop-color="#002552" stop-opacity="1"></stop></linearGradient></defs><defs><linearGradient id="grad1_7" x1="47.9%" y1="0%" x2="100%" y2="100%"><stop offset="11.600000000000001%" stop-color="#001c38" stop-opacity="1"></stop><stop offset="88.4%" stop-color="#001220" stop-opacity="1"></stop></linearGradient></defs><defs><linearGradient id="grad2_0" x1="0%" y1="0%" x2="52.1%" y2="100%"><stop offset="11.600000000000001%" stop-color="#7b2cbf" stop-opacity="1"></stop><stop offset="88.4%" stop-color="#7b2cbf" stop-opacity="1"></stop></linearGradient></defs><defs><linearGradient id="grad2_1" x1="0%" y1="0%" x2="52.1%" y2="100%"><stop offset="11.600000000000001%" stop-color="#5434af" stop-opacity="1"></stop><stop offset="88.4%" stop-color="#7b2cbf" stop-opacity="1"></stop></linearGradient></defs><defs><linearGradient id="grad2_2" x1="0%" y1="0%" x2="52.1%" y2="100%"><stop offset="11.600000000000001%" stop-color="#5434af" stop-opacity="1"></stop><stop offset="88.4%" stop-color="#2d359b" stop-opacity="1"></stop></linearGradient></defs><defs><linearGradient id="grad2_3" x1="0%" y1="0%" x2="52.1%" y2="100%"><stop offset="11.600000000000001%" stop-color="#003285" stop-opacity="1"></stop><stop offset="88.4%" stop-color="#2d359b" stop-opacity="1"></stop></linearGradient></defs><defs><linearGradient id="grad2_4" x1="0%" y1="0%" x2="52.1%" y2="100%"><stop offset="11.600000000000001%" stop-color="#003285" stop-opacity="1"></stop><stop offset="88.4%" stop-color="#002d6c" stop-opacity="1"></stop></linearGradient></defs><defs><linearGradient id="grad2_5" x1="0%" y1="0%" x2="52.1%" y2="100%"><stop offset="11.600000000000001%" stop-color="#002552" stop-opacity="1"></stop><stop offset="88.4%" stop-color="#002d6c" stop-opacity="1"></stop></linearGradient></defs><defs><linearGradient id="grad2_6" x1="0%" y1="0%" x2="52.1%" y2="100%"><stop offset="11.600000000000001%" stop-color="#002552" stop-opacity="1"></stop><stop offset="88.4%" stop-color="#001c38" stop-opacity="1"></stop></linearGradient></defs><defs><linearGradient id="grad2_7" x1="0%" y1="0%" x2="52.1%" y2="100%"><stop offset="11.600000000000001%" stop-color="#001220" stop-opacity="1"></stop><stop offset="88.4%" stop-color="#001c38" stop-opacity="1"></stop></linearGradient></defs><g transform="translate(960, 0)"><path d="M0 350C-63.5 342.1 -126.9 334.3 -175 303.1C-223.1 271.9 -255.7 217.4 -282.3 163C-308.9 108.6 -329.5 54.3 -350 0L0 0Z" fill="#00172c"></path><path d="M0 306.3C-55.5 299.4 -111.1 292.5 -153.1 265.2C-195.2 237.9 -223.8 190.2 -247 142.6C-270.3 95 -288.3 47.5 -306.2 0L0 0Z" fill="#002145"></path><path d="M0 262.5C-47.6 256.6 -95.2 250.7 -131.2 227.3C-167.3 203.9 -191.8 163.1 -211.7 122.3C-231.7 81.4 -247.1 40.7 -262.5 0L0 0Z" fill="#00295f"></path><path d="M0 218.8C-39.7 213.8 -79.3 208.9 -109.4 189.4C-139.4 170 -159.8 135.9 -176.5 101.9C-193.1 67.9 -205.9 33.9 -218.7 0L0 0Z" fill="#003078"></path><path d="M0 175C-31.7 171.1 -63.5 167.1 -87.5 151.6C-111.5 136 -127.9 108.7 -141.2 81.5C-154.5 54.3 -164.7 27.1 -175 0L0 0Z" fill="#163490"></path><path d="M0 131.3C-23.8 128.3 -47.6 125.4 -65.6 113.7C-83.6 102 -95.9 81.5 -105.9 61.1C-115.8 40.7 -123.5 20.4 -131.2 0L0 0Z" fill="#4035a6"></path><path d="M0 87.5C-15.9 85.5 -31.7 83.6 -43.7 75.8C-55.8 68 -63.9 54.4 -70.6 40.8C-77.2 27.1 -82.4 13.6 -87.5 0L0 0Z" fill="#6731b8"></path><path d="M0 43.8C-7.9 42.8 -15.9 41.8 -21.9 37.9C-27.9 34 -32 27.2 -35.3 20.4C-38.6 13.6 -41.2 6.8 -43.7 0L0 0Z" fill="#7b2cbf"></path></g><g transform="translate(0, 500)"><path d="M0 -350C57.2 -334.5 114.5 -319.1 168.5 -291.9C222.5 -264.6 273.4 -225.6 303.1 -175C332.8 -124.4 341.4 -62.2 350 0L0 0Z" fill="#00172c"></path><path d="M0 -306.2C50.1 -292.7 100.2 -279.2 147.4 -255.4C194.7 -231.5 239.2 -197.4 265.2 -153.1C291.2 -108.8 298.7 -54.4 306.3 0L0 0Z" fill="#002145"></path><path d="M0 -262.5C42.9 -250.9 85.8 -239.3 126.4 -218.9C166.9 -198.5 205 -169.2 227.3 -131.3C249.6 -93.3 256.1 -46.6 262.5 0L0 0Z" fill="#00295f"></path><path d="M0 -218.7C35.8 -209.1 71.5 -199.4 105.3 -182.4C139.1 -165.4 170.9 -141 189.4 -109.4C208 -77.7 213.4 -38.9 218.8 0L0 0Z" fill="#003078"></path><path d="M0 -175C28.6 -167.3 57.2 -159.5 84.2 -145.9C111.3 -132.3 136.7 -112.8 151.6 -87.5C166.4 -62.2 170.7 -31.1 175 0L0 0Z" fill="#163490"></path><path d="M0 -131.2C21.5 -125.5 42.9 -119.7 63.2 -109.4C83.5 -99.2 102.5 -84.6 113.7 -65.6C124.8 -46.6 128 -23.3 131.3 0L0 0Z" fill="#4035a6"></path><path d="M0 -87.5C14.3 -83.6 28.6 -79.8 42.1 -73C55.6 -66.2 68.3 -56.4 75.8 -43.8C83.2 -31.1 85.4 -15.5 87.5 0L0 0Z" fill="#6731b8"></path><path d="M0 -43.7C7.2 -41.8 14.3 -39.9 21.1 -36.5C27.8 -33.1 34.2 -28.2 37.9 -21.9C41.6 -15.5 42.7 -7.8 43.8 0L0 0Z" fill="#7b2cbf"></path></g></svg>