<svg id="visual" viewBox="0 0 1920 1080" width="1920" height="1080" xmlns="http://www.w3.org/2000/svg" xmlns:xlink="http://www.w3.org/1999/xlink" version="1.1"><rect x="0" y="0" width="1920" height="1080" fill="#001220"></rect><defs><linearGradient id="grad1_0" x1="43.8%" y1="0%" x2="100%" y2="100%"><stop offset="14.444444444444446%" stop-color="#7b2cbf" stop-opacity="1"></stop><stop offset="85.55555555555554%" stop-color="#7b2cbf" stop-opacity="1"></stop></linearGradient></defs><defs><linearGradient id="grad1_1" x1="43.8%" y1="0%" x2="100%" y2="100%"><stop offset="14.444444444444446%" stop-color="#7b2cbf" stop-opacity="1"></stop><stop offset="85.55555555555554%" stop-color="#5434af" stop-opacity="1"></stop></linearGradient></defs><defs><linearGradient id="grad1_2" x1="43.8%" y1="0%" x2="100%" y2="100%"><stop offset="14.444444444444446%" stop-color="#2d359b" stop-opacity="1"></stop><stop offset="85.55555555555554%" stop-color="#5434af" stop-opacity="1"></stop></linearGradient></defs><defs><linearGradient id="grad1_3" x1="43.8%" y1="0%" x2="100%" y2="100%"><stop offset="14.444444444444446%" stop-color="#2d359b" stop-opacity="1"></stop><stop offset="85.55555555555554%" stop-color="#003285" stop-opacity="1"></stop></linearGradient></defs><defs><linearGradient id="grad1_4" x1="43.8%" y1="0%" x2="100%" y2="100%"><stop offset="14.444444444444446%" stop-color="#002d6c" stop-opacity="1"></stop><stop offset="85.55555555555554%" stop-color="#003285" stop-opacity="1"></stop></linearGradient></defs><defs><linearGradient id="grad1_5" x1="43.8%" y1="0%" x2="100%" y2="100%"><stop offset="14.444444444444446%" stop-color="#002d6c" stop-opacity="1"></stop><stop offset="85.55555555555554%" stop-color="#002552" stop-opacity="1"></stop></linearGradient></defs><defs><linearGradient id="grad1_6" x1="43.8%" y1="0%" x2="100%" y2="100%"><stop offset="14.444444444444446%" stop-color="#001c38" stop-opacity="1"></stop><stop offset="85.55555555555554%" stop-color="#002552" stop-opacity="1"></stop></linearGradient></defs><defs><linearGradient id="grad1_7" x1="43.8%" y1="0%" x2="100%" y2="100%"><stop offset="14.444444444444446%" stop-color="#001c38" stop-opacity="1"></stop><stop offset="85.55555555555554%" stop-color="#001220" stop-opacity="1"></stop></linearGradient></defs><defs><linearGradient id="grad2_0" x1="0%" y1="0%" x2="56.3%" y2="100%"><stop offset="14.444444444444446%" stop-color="#7b2cbf" stop-opacity="1"></stop><stop offset="85.55555555555554%" stop-color="#7b2cbf" stop-opacity="1"></stop></linearGradient></defs><defs><linearGradient id="grad2_1" x1="0%" y1="0%" x2="56.3%" y2="100%"><stop offset="14.444444444444446%" stop-color="#5434af" stop-opacity="1"></stop><stop offset="85.55555555555554%" stop-color="#7b2cbf" stop-opacity="1"></stop></linearGradient></defs><defs><linearGradient id="grad2_2" x1="0%" y1="0%" x2="56.3%" y2="100%"><stop offset="14.444444444444446%" stop-color="#5434af" stop-opacity="1"></stop><stop offset="85.55555555555554%" stop-color="#2d359b" stop-opacity="1"></stop></linearGradient></defs><defs><linearGradient id="grad2_3" x1="0%" y1="0%" x2="56.3%" y2="100%"><stop offset="14.444444444444446%" stop-color="#003285" stop-opacity="1"></stop><stop offset="85.55555555555554%" stop-color="#2d359b" stop-opacity="1"></stop></linearGradient></defs><defs><linearGradient id="grad2_4" x1="0%" y1="0%" x2="56.3%" y2="100%"><stop offset="14.444444444444446%" stop-color="#003285" stop-opacity="1"></stop><stop offset="85.55555555555554%" stop-color="#002d6c" stop-opacity="1"></stop></linearGradient></defs><defs><linearGradient id="grad2_5" x1="0%" y1="0%" x2="56.3%" y2="100%"><stop offset="14.444444444444446%" stop-color="#002552" stop-opacity="1"></stop><stop offset="85.55555555555554%" stop-color="#002d6c" stop-opacity="1"></stop></linearGradient></defs><defs><linearGradient id="grad2_6" x1="0%" y1="0%" x2="56.3%" y2="100%"><stop offset="14.444444444444446%" stop-color="#002552" stop-opacity="1"></stop><stop offset="85.55555555555554%" stop-color="#001c38" stop-opacity="1"></stop></linearGradient></defs><defs><linearGradient id="grad2_7" x1="0%" y1="0%" x2="56.3%" y2="100%"><stop offset="14.444444444444446%" stop-color="#001220" stop-opacity="1"></stop><stop offset="85.55555555555554%" stop-color="#001c38" stop-opacity="1"></stop></linearGradient></defs><g transform="translate(1920, 0)"><path d="M0 1026C-90 1014.9 -180 1003.9 -258.3 964C-336.6 924.1 -403.2 855.4 -451 781.2C-498.8 707 -527.6 627.3 -569.2 569.2C-610.8 511.1 -665.1 474.6 -747.4 431.5C-829.7 388.4 -939.9 338.6 -991 265.5C-1042.1 192.5 -1034.1 96.3 -1026 0L0 0Z" fill="#00172c"></path><path d="M0 897.8C-78.7 888.1 -157.5 878.4 -226 843.5C-294.5 808.6 -352.8 748.4 -394.6 683.5C-436.4 618.6 -461.7 548.9 -498.1 498.1C-534.5 447.2 -582 415.3 -654 377.6C-726 339.8 -822.4 296.3 -867.2 232.4C-911.9 168.5 -904.8 84.2 -897.7 0L0 0Z" fill="#002145"></path><path d="M0 769.5C-67.5 761.2 -135 752.9 -193.7 723C-252.5 693.1 -302.4 641.5 -338.2 585.9C-374.1 530.2 -395.7 470.5 -426.9 426.9C-458.1 383.4 -498.8 356 -560.5 323.6C-622.2 291.3 -705 253.9 -743.3 199.2C-781.6 144.4 -775.6 72.2 -769.5 0L0 0Z" fill="#00295f"></path><path d="M0 641.3C-56.2 634.3 -112.5 627.4 -161.4 602.5C-210.4 577.6 -252 534.6 -281.9 488.2C-311.7 441.8 -329.8 392.1 -355.8 355.8C-381.8 319.5 -415.7 296.7 -467.1 269.7C-518.5 242.7 -587.5 211.6 -619.4 166C-651.3 120.3 -646.3 60.2 -641.2 0L0 0Z" fill="#003078"></path><path d="M0 513C-45 507.5 -90 501.9 -129.2 482C-168.3 462 -201.6 427.7 -225.5 390.6C-249.4 353.5 -263.8 313.6 -284.6 284.6C-305.4 255.6 -332.5 237.3 -373.7 215.8C-414.8 194.2 -470 169.3 -495.5 132.8C-521.1 96.3 -517 48.1 -513 0L0 0Z" fill="#163490"></path><path d="M0 384.8C-33.7 380.6 -67.5 376.5 -96.9 361.5C-126.2 346.5 -151.2 320.8 -169.1 292.9C-187 265.1 -197.9 235.2 -213.5 213.5C-229.1 191.7 -249.4 178 -280.3 161.8C-311.1 145.6 -352.5 127 -371.6 99.6C-390.8 72.2 -387.8 36.1 -384.7 0L0 0Z" fill="#4035a6"></path><path d="M0 256.5C-22.5 253.7 -45 251 -64.6 241C-84.2 231 -100.8 213.8 -112.7 195.3C-124.7 176.7 -131.9 156.8 -142.3 142.3C-152.7 127.8 -166.3 118.7 -186.8 107.9C-207.4 97.1 -235 84.6 -247.8 66.4C-260.5 48.1 -258.5 24.1 -256.5 0L0 0Z" fill="#6731b8"></path><path d="M0 128.3C-11.2 126.9 -22.5 125.5 -32.3 120.5C-42.1 115.5 -50.4 106.9 -56.4 97.6C-62.3 88.4 -66 78.4 -71.2 71.2C-76.4 63.9 -83.1 59.3 -93.4 53.9C-103.7 48.5 -117.5 42.3 -123.9 33.2C-130.3 24.1 -129.3 12 -128.2 0L0 0Z" fill="#7b2cbf"></path></g><g transform="translate(0, 1080)"><path d="M0 -1026C78.4 -969.6 156.8 -913.2 238.1 -888.7C319.4 -864.1 403.5 -871.5 492.5 -853C581.5 -834.6 675.3 -790.2 712.8 -712.8C750.3 -635.3 731.4 -524.7 778.6 -449.5C825.7 -374.3 938.8 -334.6 991 -265.5C1043.3 -196.5 1034.6 -98.3 1026 0L0 0Z" fill="#00172c"></path><path d="M0 -897.7C68.6 -848.4 137.2 -799 208.3 -777.6C279.5 -756.1 353.1 -762.6 430.9 -746.4C508.8 -730.2 590.9 -691.5 623.7 -623.7C656.5 -555.9 640 -459.1 681.2 -393.3C722.5 -327.5 821.5 -292.7 867.2 -232.4C912.9 -172 905.3 -86 897.8 0L0 0Z" fill="#002145"></path><path d="M0 -769.5C58.8 -727.2 117.6 -684.9 178.6 -666.5C239.5 -648.1 302.6 -653.6 369.4 -639.8C436.1 -625.9 506.5 -592.7 534.6 -534.6C562.7 -476.5 548.6 -393.5 583.9 -337.1C619.3 -280.7 704.1 -250.9 743.3 -199.2C782.5 -147.4 776 -73.7 769.5 0L0 0Z" fill="#00295f"></path><path d="M0 -641.2C49 -606 98 -570.7 148.8 -555.4C199.6 -540.1 252.2 -544.7 307.8 -533.1C363.4 -521.6 422 -493.9 445.5 -445.5C468.9 -397.1 457.1 -327.9 486.6 -280.9C516.1 -233.9 586.8 -209.1 619.4 -166C652 -122.8 646.6 -61.4 641.3 0L0 0Z" fill="#003078"></path><path d="M0 -513C39.2 -484.8 78.4 -456.6 119.1 -444.3C159.7 -432.1 201.8 -435.8 246.2 -426.5C290.7 -417.3 337.6 -395.1 356.4 -356.4C375.1 -317.6 365.7 -262.3 389.3 -224.8C412.8 -187.2 469.4 -167.3 495.5 -132.8C521.6 -98.3 517.3 -49.1 513 0L0 0Z" fill="#163490"></path><path d="M0 -384.7C29.4 -363.6 58.8 -342.4 89.3 -333.2C119.8 -324 151.3 -326.8 184.7 -319.9C218.1 -313 253.2 -296.3 267.3 -267.3C281.3 -238.2 274.3 -196.8 292 -168.6C309.6 -140.4 352.1 -125.5 371.6 -99.6C391.2 -73.7 388 -36.9 384.8 0L0 0Z" fill="#4035a6"></path><path d="M0 -256.5C19.6 -242.4 39.2 -228.3 59.5 -222.2C79.8 -216 100.9 -217.9 123.1 -213.3C145.4 -208.6 168.8 -197.6 178.2 -178.2C187.6 -158.8 182.9 -131.2 194.6 -112.4C206.4 -93.6 234.7 -83.6 247.8 -66.4C260.8 -49.1 258.7 -24.6 256.5 0L0 0Z" fill="#6731b8"></path><path d="M0 -128.2C9.8 -121.2 19.6 -114.1 29.8 -111.1C39.9 -108 50.4 -108.9 61.6 -106.6C72.7 -104.3 84.4 -98.8 89.1 -89.1C93.8 -79.4 91.4 -65.6 97.3 -56.2C103.2 -46.8 117.4 -41.8 123.9 -33.2C130.4 -24.6 129.3 -12.3 128.3 0L0 0Z" fill="#7b2cbf"></path></g></svg>