<svg id="visual" viewBox="0 0 80 1500" width="80" height="1500" xmlns="http://www.w3.org/2000/svg" xmlns:xlink="http://www.w3.org/1999/xlink" version="1.1"><rect x="0" y="0" width="80" height="1500" fill="#001220"></rect><path d="M28 0L30.8 41.7C33.7 83.3 39.3 166.7 38.3 250C37.3 333.3 29.7 416.7 25.8 500C22 583.3 22 666.7 24.2 750C26.3 833.3 30.7 916.7 34.3 1000C38 1083.3 41 1166.7 41 1250C41 1333.3 38 1416.7 36.5 1458.3L35 1500L0 1500L0 1458.3C0 1416.7 0 1333.3 0 1250C0 1166.7 0 1083.3 0 1000C0 916.7 0 833.3 0 750C0 666.7 0 583.3 0 500C0 416.7 0 333.3 0 250C0 166.7 0 83.3 0 41.7L0 0Z" fill="#7b2cbf"></path><path d="M15 0L16 41.7C17 83.3 19 166.7 18.5 250C18 333.3 15 416.7 16.2 500C17.3 583.3 22.7 666.7 25.3 750C28 833.3 28 916.7 28.3 1000C28.7 1083.3 29.3 1166.7 28.7 1250C28 1333.3 26 1416.7 25 1458.3L24 1500L0 1500L0 1458.3C0 1416.7 0 1333.3 0 1250C0 1166.7 0 1083.3 0 1000C0 916.7 0 833.3 0 750C0 666.7 0 583.3 0 500C0 416.7 0 333.3 0 250C0 166.7 0 83.3 0 41.7L0 0Z" fill="#a155df"></path><path d="M4 0L4 41.7C4 83.3 4 166.7 6 250C8 333.3 12 416.7 13.2 500C14.3 583.3 12.7 666.7 10.5 750C8.3 833.3 5.7 916.7 5.7 1000C5.7 1083.3 8.3 1166.7 8.5 1250C8.7 1333.3 6.3 1416.7 5.2 1458.3L4 1500L0 1500L0 1458.3C0 1416.7 0 1333.3 0 1250C0 1166.7 0 1083.3 0 1000C0 916.7 0 833.3 0 750C0 666.7 0 583.3 0 500C0 416.7 0 333.3 0 250C0 166.7 0 83.3 0 41.7L0 0Z" fill="#c77dff"></path></svg>