<svg id="visual" viewBox="0 0 800 900" width="800" height="900" xmlns="http://www.w3.org/2000/svg" xmlns:xlink="http://www.w3.org/1999/xlink" version="1.1"><path d="M471 900L473.7 886.3C476.3 872.7 481.7 845.3 480.3 818C479 790.7 471 763.3 501.7 736.2C532.3 709 601.7 682 633.7 654.8C665.7 627.7 660.3 600.3 613.7 573C567 545.7 479 518.3 448.3 491C417.7 463.7 444.3 436.3 461.7 409C479 381.7 487 354.3 503 327C519 299.7 543 272.3 563 245.2C583 218 599 191 587 163.8C575 136.7 535 109.3 520.3 82C505.7 54.7 516.3 27.3 521.7 13.7L527 0L800 0L800 13.7C800 27.3 800 54.7 800 82C800 109.3 800 136.7 800 163.8C800 191 800 218 800 245.2C800 272.3 800 299.7 800 327C800 354.3 800 381.7 800 409C800 436.3 800 463.7 800 491C800 518.3 800 545.7 800 573C800 600.3 800 627.7 800 654.8C800 682 800 709 800 736.2C800 763.3 800 790.7 800 818C800 845.3 800 872.7 800 886.3L800 900Z" fill="#7b2cbf"></path><path d="M199 900L201.7 886.3C204.3 872.7 209.7 845.3 229.7 818C249.7 790.7 284.3 763.3 307 736.2C329.7 709 340.3 682 344.3 654.8C348.3 627.7 345.7 600.3 327 573C308.3 545.7 273.7 518.3 272.3 491C271 463.7 303 436.3 325.7 409C348.3 381.7 361.7 354.3 364.3 327C367 299.7 359 272.3 335 245.2C311 218 271 191 265.7 163.8C260.3 136.7 289.7 109.3 299 82C308.3 54.7 297.7 27.3 292.3 13.7L287 0L528 0L522.7 13.7C517.3 27.3 506.7 54.7 521.3 82C536 109.3 576 136.7 588 163.8C600 191 584 218 564 245.2C544 272.3 520 299.7 504 327C488 354.3 480 381.7 462.7 409C445.3 436.3 418.7 463.7 449.3 491C480 518.3 568 545.7 614.7 573C661.3 600.3 666.7 627.7 634.7 654.8C602.7 682 533.3 709 502.7 736.2C472 763.3 480 790.7 481.3 818C482.7 845.3 477.3 872.7 474.7 886.3L472 900Z" fill="#582599"></path><path d="M127 900L129.7 886.3C132.3 872.7 137.7 845.3 161.7 818C185.7 790.7 228.3 763.3 251 736.2C273.7 709 276.3 682 265.7 654.8C255 627.7 231 600.3 215 573C199 545.7 191 518.3 191 491C191 463.7 199 436.3 204.3 409C209.7 381.7 212.3 354.3 207 327C201.7 299.7 188.3 272.3 175 245.2C161.7 218 148.3 191 148.3 163.8C148.3 136.7 161.7 109.3 165.7 82C169.7 54.7 164.3 27.3 161.7 13.7L159 0L288 0L293.3 13.7C298.7 27.3 309.3 54.7 300 82C290.7 109.3 261.3 136.7 266.7 163.8C272 191 312 218 336 245.2C360 272.3 368 299.7 365.3 327C362.7 354.3 349.3 381.7 326.7 409C304 436.3 272 463.7 273.3 491C274.7 518.3 309.3 545.7 328 573C346.7 600.3 349.3 627.7 345.3 654.8C341.3 682 330.7 709 308 736.2C285.3 763.3 250.7 790.7 230.7 818C210.7 845.3 205.3 872.7 202.7 886.3L200 900Z" fill="#3a1c73"></path><path d="M79 900L79 886.3C79 872.7 79 845.3 88.3 818C97.7 790.7 116.3 763.3 135 736.2C153.7 709 172.3 682 168.3 654.8C164.3 627.7 137.7 600.3 119 573C100.3 545.7 89.7 518.3 88.3 491C87 463.7 95 436.3 96.3 409C97.7 381.7 92.3 354.3 96.3 327C100.3 299.7 113.7 272.3 113.7 245.2C113.7 218 100.3 191 89.7 163.8C79 136.7 71 109.3 69.7 82C68.3 54.7 73.7 27.3 76.3 13.7L79 0L160 0L162.7 13.7C165.3 27.3 170.7 54.7 166.7 82C162.7 109.3 149.3 136.7 149.3 163.8C149.3 191 162.7 218 176 245.2C189.3 272.3 202.7 299.7 208 327C213.3 354.3 210.7 381.7 205.3 409C200 436.3 192 463.7 192 491C192 518.3 200 545.7 216 573C232 600.3 256 627.7 266.7 654.8C277.3 682 274.7 709 252 736.2C229.3 763.3 186.7 790.7 162.7 818C138.7 845.3 133.3 872.7 130.7 886.3L128 900Z" fill="#21124e"></path><path d="M0 900L0 886.3C0 872.7 0 845.3 0 818C0 790.7 0 763.3 0 736.2C0 709 0 682 0 654.8C0 627.7 0 600.3 0 573C0 545.7 0 518.3 0 491C0 463.7 0 436.3 0 409C0 381.7 0 354.3 0 327C0 299.7 0 272.3 0 245.2C0 218 0 191 0 163.8C0 136.7 0 109.3 0 82C0 54.7 0 27.3 0 13.7L0 0L80 0L77.3 13.7C74.7 27.3 69.3 54.7 70.7 82C72 109.3 80 136.7 90.7 163.8C101.3 191 114.7 218 114.7 245.2C114.7 272.3 101.3 299.7 97.3 327C93.3 354.3 98.7 381.7 97.3 409C96 436.3 88 463.7 89.3 491C90.7 518.3 101.3 545.7 120 573C138.7 600.3 165.3 627.7 169.3 654.8C173.3 682 154.7 709 136 736.2C117.3 763.3 98.7 790.7 89.3 818C80 845.3 80 872.7 80 886.3L80 900Z" fill="#10002b"></path></svg>