<svg width="1919.9999999999998" height="1080" xmlns="http://www.w3.org/2000/svg" version="1.1">
















 <g>
  <title>Layer 1</title>
  <rect stroke="null" id="svg_1" fill="#001220" height="1128" width="1965.99998" y="-41.99998" x="-40.99994"/>
  <g id="svg_2">
   <path id="svg_3" fill="#00172c" d="m1920,1026c-90,-11.1 -180,-22.1 -258.3,-62c-78.3,-39.9 -144.9,-108.6 -192.7,-182.8c-47.8,-74.2 -76.6,-153.9 -118.2,-212c-41.6,-58.1 -95.9,-94.6 -178.2,-137.7c-82.3,-43.1 -192.5,-92.9 -243.6,-166c-51.1,-73 -43.1,-169.2 -35,-265.5l1026,0l0,1026z"/>
   <path id="svg_4" fill="#002145" d="m1920,897.8c-78.7,-9.7 -157.5,-19.4 -226,-54.3c-68.5,-34.9 -126.8,-95.1 -168.6,-160c-41.8,-64.9 -67.1,-134.6 -103.5,-185.4c-36.4,-50.9 -83.9,-82.8 -155.9,-120.5c-72,-37.8 -168.4,-81.3 -213.2,-145.2c-44.7,-63.9 -37.6,-148.2 -30.5,-232.4l897.7,0l0,897.8z"/>
   <path id="svg_5" fill="#00295f" d="m1920,769.5c-67.5,-8.3 -135,-16.6 -193.7,-46.5c-58.8,-29.9 -108.7,-81.5 -144.5,-137.1c-35.9,-55.7 -57.5,-115.4 -88.7,-159c-31.2,-43.5 -71.9,-70.9 -133.6,-103.3c-61.7,-32.3 -144.5,-69.7 -182.8,-124.4c-38.3,-54.8 -32.3,-127 -26.2,-199.2l769.5,0l0,769.5z"/>
   <path id="svg_6" fill="#003078" d="m1920,641.3c-56.2,-7 -112.5,-13.9 -161.4,-38.8c-49,-24.9 -90.6,-67.9 -120.5,-114.3c-29.8,-46.4 -47.9,-96.1 -73.9,-132.4c-26,-36.3 -59.9,-59.1 -111.3,-86.1c-51.4,-27 -120.4,-58.1 -152.3,-103.7c-31.9,-45.7 -26.9,-105.8 -21.8,-166l641.2,0l0,641.3z"/>
   <path id="svg_7" fill="#163490" d="m1920,513c-45,-5.5 -90,-11.1 -129.2,-31c-39.1,-20 -72.4,-54.3 -96.3,-91.4c-23.9,-37.1 -38.3,-77 -59.1,-106c-20.8,-29 -47.9,-47.3 -89.1,-68.8c-41.1,-21.6 -96.3,-46.5 -121.8,-83c-25.6,-36.5 -21.5,-84.7 -17.5,-132.8l513,0l0,513z"/>
   <path id="svg_8" fill="#4035a6" d="m1920,384.8c-33.7,-4.2 -67.5,-8.3 -96.9,-23.3c-29.3,-15 -54.3,-40.7 -72.2,-68.6c-17.9,-27.8 -28.8,-57.7 -44.4,-79.4c-15.6,-21.8 -35.9,-35.5 -66.8,-51.7c-30.8,-16.2 -72.2,-34.8 -91.3,-62.2c-19.2,-27.4 -16.2,-63.5 -13.1,-99.6l384.7,0l0,384.8z"/>
   <path id="svg_9" fill="#6731b8" d="m1920,256.5c-22.5,-2.8 -45,-5.5 -64.6,-15.5c-19.6,-10 -36.2,-27.2 -48.1,-45.7c-12,-18.6 -19.2,-38.5 -29.6,-53c-10.4,-14.5 -24,-23.6 -44.5,-34.4c-20.6,-10.8 -48.2,-23.3 -61,-41.5c-12.7,-18.3 -10.7,-42.3 -8.7,-66.4l256.5,0l0,256.5z"/>
   <path id="svg_10" fill="#7b2cbf" d="m1920,128.3c-11.2,-1.4 -22.5,-2.8 -32.3,-7.8c-9.8,-5 -18.1,-13.6 -24.1,-22.9c-5.9,-9.2 -9.6,-19.2 -14.8,-26.4c-5.2,-7.3 -11.9,-11.9 -22.2,-17.3c-10.3,-5.4 -24.1,-11.6 -30.5,-20.7c-6.4,-9.1 -5.4,-21.2 -4.3,-33.2l128.2,0l0,128.3z"/>
  </g>
  <g id="svg_11">
   <path id="svg_12" fill="#00172c" d="m0,54c78.4,56.4 156.8,112.8 238.1,137.3c81.3,24.6 165.4,17.2 254.4,35.7c89,18.4 182.8,62.8 220.3,140.2c37.5,77.5 18.6,188.1 65.8,263.3c47.1,75.2 160.2,114.9 212.4,184c52.3,69 43.6,167.2 35,265.5l-1026,0l0,-1026z"/>
   <path id="svg_13" fill="#002145" d="m0,182.3c68.6,49.3 137.2,98.7 208.3,120.1c71.2,21.5 144.8,15 222.6,31.2c77.9,16.2 160,54.9 192.8,122.7c32.8,67.8 16.3,164.6 57.5,230.4c41.3,65.8 140.3,100.6 186,160.9c45.7,60.4 38.1,146.4 30.6,232.4l-897.8,0l0,-897.7z"/>
   <path id="svg_14" fill="#00295f" d="m0,310.5c58.8,42.3 117.6,84.6 178.6,103c60.9,18.4 124,12.9 190.8,26.7c66.7,13.9 137.1,47.1 165.2,105.2c28.1,58.1 14,141.1 49.3,197.5c35.4,56.4 120.2,86.2 159.4,137.9c39.2,51.8 32.7,125.5 26.2,199.2l-769.5,0l0,-769.5z"/>
   <path id="svg_15" fill="#003078" d="m0,438.8c49,35.2 98,70.5 148.8,85.8c50.8,15.3 103.4,10.7 159,22.3c55.6,11.5 114.2,39.2 137.7,87.6c23.4,48.4 11.6,117.6 41.1,164.6c29.5,47 100.2,71.8 132.8,114.9c32.6,43.2 27.2,104.6 21.9,166l-641.3,0l0,-641.2z"/>
   <path id="svg_16" fill="#163490" d="m0,567c39.2,28.2 78.4,56.4 119.1,68.7c40.6,12.2 82.7,8.5 127.1,17.8c44.5,9.2 91.4,31.4 110.2,70.1c18.7,38.8 9.3,94.1 32.9,131.6c23.5,37.6 80.1,57.5 106.2,92c26.1,34.5 21.8,83.7 17.5,132.8l-513,0l0,-513z"/>
   <path id="svg_17" fill="#4035a6" d="m0,695.3c29.4,21.1 58.8,42.3 89.3,51.5c30.5,9.2 62,6.4 95.4,13.3c33.4,6.9 68.5,23.6 82.6,52.6c14,29.1 7,70.5 24.7,98.7c17.6,28.2 60.1,43.1 79.6,69c19.6,25.9 16.4,62.7 13.2,99.6l-384.8,0l0,-384.7z"/>
   <path id="svg_18" fill="#6731b8" d="m0,823.5c19.6,14.1 39.2,28.2 59.5,34.3c20.3,6.2 41.4,4.3 63.6,8.9c22.3,4.7 45.7,15.7 55.1,35.1c9.4,19.4 4.7,47 16.4,65.8c11.8,18.8 40.1,28.8 53.2,46c13,17.3 10.9,41.8 8.7,66.4l-256.5,0l0,-256.5z"/>
   <path id="svg_19" fill="#7b2cbf" d="m0,951.8c9.8,7 19.6,14.1 29.8,17.1c10.1,3.1 20.6,2.2 31.8,4.5c11.1,2.3 22.8,7.8 27.5,17.5c4.7,9.7 2.3,23.5 8.2,32.9c5.9,9.4 20.1,14.4 26.6,23c6.5,8.6 5.4,20.9 4.4,33.2l-128.3,0l0,-128.2z"/>
  </g>
  <g>
   <polygon fill="#f2f2f2" points="546.4714298248291,512.0979290008545 546.4414005279541,514.0979290008545 300.8414249420166,514.0979290008545 300.8414249420166,512.0979290008545 546.4714298248291,512.0979290008545 "/>
   <polygon fill="#f2f2f2" points="546.9614200592041,469.5979290008545 546.9414005279541,471.5979290008545 300.8414249420166,471.5979290008545 300.8414249420166,469.5979290008545 546.9614200592041,469.5979290008545 "/>
   <polygon fill="#f2f2f2" points="547.4614200592041,427.0979290008545 547.4414005279541,429.0979290008545 300.8414249420166,429.0979290008545 300.8414249420166,427.0979290008545 547.4614200592041,427.0979290008545 "/>
   <path fill="#f2f2f2" d="m545.92141,558.49791l-0.02002,2l-250.53998,0l0,-209.89996l2,0.01996l0,125.61005c0,12.85999 2.95001,25.02997 8.21002,35.87c0.32996,0.66998 0.65997,1.33997 1.01001,2c13.69995,26.38 41.27997,44.39996 73.06,44.39996l166.27997,0l0,-0.00001z"/>
   <path fill="#ffb6b6" d="m262.45716,436.25843c0.6856,4.30491 -2.82372,8.31798 -7.1811,8.19386l-14.46131,32.59311l-9.99866,-1.78348l17.45895,-38.58576c0.28542,-3.21303 2.7268,-5.93561 6.05818,-6.43248c3.90418,-0.58248 7.54137,2.11042 8.12394,6.01475z"/>
   <path fill="#6c63ff" d="m184.1896,536.3933l0.00002,0.00002c4.12695,4.26864 10.81252,4.72764 15.48413,1.06307l34.21524,-26.83962l16.95234,-52.7164l-12.32518,-5.70097l-23.15567,46.18241l-29.44659,20.43585c-5.87041,4.07405 -6.69101,12.43841 -1.72429,17.57566l0,-0.00002z"/>
   <path fill="#2f2e41" d="m191.63143,518.08793c-0.89001,-0.60999 -1.84003,-1.15002 -2.82001,-1.60999c0.02002,-0.26001 0.02997,-0.53003 0.02997,-0.79004c0.05005,-2.63 -0.46997,-5.26001 -1.52997,-7.66998c0.14001,2.12 -0.51001,4.28003 -1.78998,5.97003c-0.22003,0.29999 -0.46002,0.57996 -0.72003,0.84998c-0.07001,0.07001 -0.14001,0.14001 -0.21002,0.20001c-1.40997,-0.32001 -2.87,-0.47003 -4.31995,-0.45001c-1.61005,0.02997 -3.21002,0.25 -4.80005,0.56c-1.98999,0.38 -3.96997,0.90997 -5.94995,1.34998c-0.12006,0.03003 -0.23004,0.05005 -0.35004,0.08002c-0.90997,-2.46997 -2.33997,-4.72998 -4.20001,-6.58997c0.89001,1.91998 1.07001,4.16998 0.49005,6.20996c-0.10004,0.35999 -0.22003,0.71002 -0.37006,1.04999c-2.15997,0.22003 -4.31995,0.16003 -6.38995,-0.44c-0.88,-0.25 -1.71002,-0.58997 -2.52002,-0.98999c-2.85999,-1.39996 -5.44,-3.47998 -8.39001,-4.72998c-1.58997,-0.67999 -3.26996,-1.09998 -4.98999,-1.27002c-1.44,-8.25 -1.03998,-15.57001 3.38,-20.85999c0,-12.07001 9.78998,-21.85999 21.85999,-21.85999l10.02002,3.47998l10.12,3.52002c4.76001,12.70001 12.33002,23.88 3.45001,43.98999z"/>
   <g>
    <polygon fill="#ffb6b6" points="207.76336097717285,746.733549118042 214.6174259185791,749.9839763641357 230.69622230529785,724.5047283172607 220.58025550842285,719.7073650360107 207.76336097717285,746.733549118042 "/>
    <path fill="#2f2e41" d="m224.24188,765.0375l-7.31896,-12.67829l2.32612,-4.90487l-2.42065,-0.97918l-7.51003,-3.02079l-1.83913,-0.74488l-9.65983,16.63832l5.14357,2.43525l3.21845,-4.41779l0.04209,5.96753l13.62704,6.46389c1.69373,0.80171 3.71838,0.07495 4.51774,-1.61235c0.47723,-1.0059 0.42999,-2.18135 -0.12641,-3.14684z"/>
   </g>
   <g>
    <polygon fill="#ffb6b6" points="308.98369789123535,649.6918621063232 314.45086097717285,644.4330730438232 296.31707191467285,620.372953414917 288.24810218811035,628.1343059539795 308.98369789123535,649.6918621063232 "/>
    <path fill="#2f2e41" d="m331.93716,640.76358l-14.44859,2.35465l-3.7632,-3.9124l-1.77299,1.917l-5.48466,5.9535l-1.34792,1.45614l12.139,14.92618l4.099,-3.94778l-2.99167,-4.57441l5.59568,2.07402l10.87093,-10.45471c1.34958,-1.30004 1.38694,-3.45085 0.09209,-4.79596c-0.7717,-0.80253 -1.88769,-1.17464 -2.98766,-0.99623l-0.00001,0z"/>
   </g>
   <path fill="#2f2e41" d="m193.18142,606.09794l-27,-6l0.1811,8.21464s-28.1811,21.78536 -2.1811,42.78536s70,23 70,23l-20,58l10,4l39.37269,-53.76818c5.3016,-9.63961 3.80294,-21.78626 -4.09491,-29.44478c-1.52778,-1.48148 -3.27778,-2.78704 -5.27778,-3.78704c-12,-6 -44,-18 -44,-18l-16,-16l-1,-9z"/>
   <path fill="#2f2e41" d="m192.18142,621.09794l55.45635,-35.2904c6.2227,-3.9599 14.32725,-3.25767 19.77611,1.71353l41.76755,45.57687l-11,9l-43,-30s-25,28 -32,28s-31,-19 -31,-19l-0.00001,0z"/>
   <path fill="#6c63ff" d="m162.18142,623.94834s-17.03196,-9.65354 -9.01598,-17.82677c8.01598,-8.17323 9.01598,-34.01575 9.01598,-34.01575l-13,-39.15748l10,-7l3,-11.85039l18,-1l0,8.85039l18.03125,19.96317c6.12754,6.78406 7.9784,16.41079 4.80336,24.98339l-4.83461,13.05344s14,37 2,42s-38,2 -38,2z"/>
   <path isolation="isolate" fill="#f2f2f2" d="m252.25843,480.7208l-47.29717,-42.20799c-7.14407,-6.33488 -7.79992,-17.26225 -1.46504,-24.40632c6.33488,-7.14407 17.26225,-7.79992 24.40632,-1.46504l0.08136,0.0729l47.29717,42.20799c7.10393,6.37982 7.69061,17.31085 1.31079,24.41478c-6.35141,7.0724 -17.22127,7.69036 -24.33342,1.38368l-0.00001,0z"/>
   <circle fill="#ffb6b6" r="17.97922" cy="491.8066" cx="175.42551"/>
   <path fill="#2f2e41" d="m184.7914,488.09794c-0.13,-2.09003 -0.64001,-4.16003 -1.47998,-6.08002c0.14001,2.12 -0.51001,4.28003 -1.78998,5.97003c-0.03003,0.03998 -0.06,0.06995 -0.08002,0.10999c-3.30505,1.60492 -8.87734,0.69739 -14.26001,0l0,-20l11,0c10.79999,-3.64001 19.69,4.27997 20,20c-5.18146,0.93848 -10.03812,1.45245 -13.39001,0z"/>
   <path fill="#2f2e41" d="m175.4714,515.14793c-1.98999,0.38 -3.96997,0.90997 -5.94995,1.34998c-0.12006,0.03003 -0.23004,0.05005 -0.35004,0.08002c-0.90997,-2.46997 -2.33997,-4.72998 -4.20001,-6.58997c0.89001,1.91998 1.07001,4.16998 0.49005,6.20996c-0.10004,0.35999 -0.22003,0.71002 -0.37006,1.04999c-2.15997,0.22003 -4.31995,0.16003 -6.38995,-0.44c-0.88,-0.25 -1.71002,-0.58997 -2.52002,-0.98999l0,-42.71997l21,0c-8.15002,13.88 -9.31,27.88 -1.71002,42.04999l0,-0.00001z"/>
   <path fill="#2f2e41" d="m171.5035,465.15074c-0.38373,-1.2016 -1.84692,-1.77435 -3.09338,-1.58087s-2.32019,0.95422 -3.34247,1.69318c0.99567,-1.08368 0.48907,-2.99548 -0.72955,-3.82056c-1.21863,-0.82507 -2.84772,-0.76813 -4.25439,-0.33563s-2.68787,1.1955 -4.06183,1.72278s-2.94043,0.80731 -4.30121,0.24689c0.5296,1.66644 1.55389,3.17224 2.9093,4.27692c-1.60321,-0.28046 -3.34064,0.55066 -4.12842,1.97485c-0.78778,1.42426 -0.56848,3.33771 0.52106,4.54675c1.25067,1.38782 3.36615,1.71301 5.18286,1.2774c1.81665,-0.43561 3.4068,-1.50653 4.93835,-2.57623c1.53162,-1.06976 3.08679,-2.17706 4.87927,-2.70355l-5.89142,3.70551c3.00885,-1.25372 5.92804,-2.72241 8.72809,-4.39111c0.74866,-0.44623 1.50403,-0.9198 2.05115,-1.59827c0.54712,-0.67841 0.85767,-1.60773 0.59259,-2.43805l0,-0.00001z"/>
   <path fill="#3f3d56" d="m143.73904,644.79098c-0.13573,-4.44108 3.83876,-7.5907 7.9021,-8.40515c5.16288,-1.03483 10.43323,1.6275 14.80774,4.0465c7.81729,4.32278 16.88691,0.03646 25.23963,5.2845c12.32971,7.74683 14.87659,-3.8573 14.10007,-17.55804c-0.57269,-10.10431 1.87463,-20.02782 2.3958,-29.96836c0.50187,-9.57241 3.10865,-19.29814 11.22408,-25.24487c3.4069,-2.49646 7.65079,-3.97382 11.88111,-3.09783c4.51822,0.93561 8.12757,4.18269 12.48125,5.59638c8.10181,2.63076 16.62262,-0.9191 22.69838,-6.33196c7.06711,-6.29604 10.51744,-15.15117 12.94586,-24.08181c2.51795,-9.25989 4.05581,-18.95527 8.67236,-27.48558c3.93941,-7.27909 10.12776,-13.9976 18.65624,-15.38591c8.35653,-1.36032 16.36315,2.73637 23.57555,6.40514c7.42307,3.77593 15.09673,7.86697 23.60149,8.21899c18.22481,0.75435 32.30268,-14.75132 40.20092,-29.4944c9.01498,-16.82763 14.24191,-37.24657 30.25809,-49.14327c6.88411,-5.11347 15.61879,-8.6834 24.31604,-7.25055c8.79021,1.44817 15.21182,7.8238 21.04941,14.05528c5.97945,6.38291 11.91647,12.67126 20.01786,16.34725c7.95048,3.60752 16.83319,4.95884 25.49334,3.81618c4.18252,-0.55186 8.18443,-1.69781 12.05394,-3.36938c1.76751,-0.76354 0.24146,-3.34881 -1.51416,-2.59041c-8.48664,3.6661 -18.14703,4.30142 -27.1005,2.09536c-8.99598,-2.21653 -16.16459,-7.24858 -22.51688,-13.83605c-5.81588,-6.03121 -11.28358,-12.89767 -18.89127,-16.77333c-7.69551,-3.9204 -16.51943,-3.82055 -24.46196,-0.65742c-8.05339,3.20728 -15.02994,8.88033 -20.32012,15.70073c-6.14557,7.92323 -10.23236,17.20961 -14.34048,26.28645c-7.42505,16.40558 -16.94389,35.77933 -35.94003,40.87841c-17.98639,4.82803 -31.29431,-11.08766 -48.07189,-13.61409c-8.24822,-1.24205 -16.0541,1.61361 -21.89485,7.50502c-6.04692,6.09938 -9.54245,14.16582 -11.85171,22.31495c-2.82949,9.98499 -4.28635,20.67954 -9.48211,29.82204c-4.10713,7.22696 -11.71444,13.92944 -20.35876,14.4304c-4.9518,0.28697 -8.7437,-1.99789 -12.97617,-4.20528c-3.8157,-1.99003 -7.79978,-3.01454 -12.0884,-2.17763c-8.0324,1.56751 -14.27311,8.66546 -17.34049,15.90142c-7.56604,17.84832 2.85289,40.78418 -11.9585,56.04566c-2.70714,2.7894 -6.17937,4.88726 -10.0999,5.31405c-5.25229,0.57177 -10.16337,-1.87313 -14.61569,-4.35349c-7.69058,-4.28438 -17.42788,-10.01308 -25.85703,-4.06674c-2.99112,2.11008 -5.00445,5.29452 -4.89038,9.02681c0.05887,1.92602 3.05912,1.9343 3,0l0,0l0.00002,0.00003z"/>
   <circle fill="#6c63ff" r="9" cy="428.09794" cx="443.18142"/>
   <circle fill="#6c63ff" r="9" cy="513.09794" cx="359.18142"/>
   <g>
    <path fill="#f2f2f2" d="m307.86345,241.00535c5.51929,-11.45404 19.83836,-17.83312 32.04508,-14.27595c6.87631,2.00383 12.64397,6.60795 18.96675,9.97269c6.32278,3.36473 14.16693,5.45429 20.52715,2.16088c10.93248,-5.66101 10.26586,-22.56247 19.77479,-30.38209c6.32913,-5.20473 15.61599,-4.96147 23.43858,-2.52136c7.82259,2.44011 14.97614,6.74802 22.84954,9.01884c14.65161,4.22577 31.31215,0.67202 42.96425,-9.16442c0.11652,-0.09836 0.23141,-0.19745 0.34469,-0.29725c5.76867,-5.08214 14.80819,-0.894 14.59667,6.79111l-1.47506,53.59385l-192.99999,0l-1.03245,-24.8963z"/>
    <path fill="#3f3d56" d="m477.24533,231.34772c0.63586,-0.25812 0.6358,-1.14911 -0.00018,-1.4071c-4.43695,-1.7998 -9.40582,-4.36212 -13.20312,-7.14923c-0.60797,-0.44623 -1.42035,0.16895 -1.16382,0.87811l2.16144,5.97443l-36.98395,0l0,2l36.98401,0l-2.16174,5.97662c-0.25653,0.70917 0.55585,1.32428 1.16382,0.87805c3.79736,-2.78723 8.76642,-5.34985 13.20355,-7.15088l-0.00001,0z"/>
    <path fill="#3f3d56" d="m394.0392,221.71508c0.34979,-0.59042 -0.18973,-1.2995 -0.8521,-1.11976c-4.62096,1.254 -10.12694,2.2232 -14.83661,2.30414c-0.75404,0.01296 -1.02813,0.99443 -0.39459,1.40352l5.33753,3.44621l-29.43451,22.39246l1.21093,1.59175l29.43456,-22.39249l1.89816,6.06549c0.22521,0.71973 1.24419,0.71741 1.45788,-0.00583c1.33465,-4.51745 3.73781,-9.56555 6.17874,-13.68547l0.00001,-0.00002z"/>
    <circle fill="#6c63ff" r="17.14286" cy="201.7363" cx="495.24629"/>
    <circle opacity="0.7" fill="#6c63ff" r="17.14286" cy="201.7363" cx="411.24629"/>
    <circle opacity="0.25" fill="#6c63ff" r="17.14286" cy="217.7363" cx="335.24629"/>
   </g>
   <g>
    <path fill="#f2f2f2" d="m543.20724,300.09485l-265.99317,-1.9064c-8.54977,-0.06128 -15.54941,6.83875 -15.61069,15.38851c-0.06128,8.54977 6.83875,15.54941 15.38851,15.61069l265.99317,1.9064c8.54977,0.06128 15.54941,-6.83875 15.61069,-15.38851c0.06128,-8.54977 -6.83875,-15.54941 -15.38851,-15.61069z"/>
    <circle fill="#f2f2f2" r="7" cy="310.45227" cx="237.47746"/>
   </g>
   <g>
    <path fill="#f2f2f2" d="m543.20724,128.09485l-265.99317,-1.9064c-8.54977,-0.06128 -15.54941,6.83875 -15.61069,15.38851c-0.06128,8.54977 6.83875,15.54941 15.38851,15.61069l265.99317,1.9064c8.54977,0.06128 15.54941,-6.83875 15.61069,-15.38851c0.06128,-8.54977 -6.83875,-15.54941 -15.38851,-15.61069z"/>
    <circle fill="#f2f2f2" r="7" cy="138.45227" cx="237.47746"/>
   </g>
   <g>
    <path fill="#fff" d="m210.01468,698.67156l-43.56457,0c-3.66186,0 -6.64094,-2.97908 -6.64094,-6.64094l0,-43.56457c0,-3.66186 2.97908,-6.64094 6.64094,-6.64094l43.56457,0c3.66186,0 6.64094,2.97908 6.64094,6.64094l0,43.56457c0,3.66186 -2.97908,6.64094 -6.64094,6.64094z"/>
    <path fill="#e6e6e6" d="m210.01468,698.67156l-43.56457,0c-3.66186,0 -6.64094,-2.97908 -6.64094,-6.64094l0,-43.56457c0,-3.66186 2.97908,-6.64094 6.64094,-6.64094l43.56457,0c3.66186,0 6.64094,2.97908 6.64094,6.64094l0,43.56457c0,3.66186 -2.97908,6.64094 -6.64094,6.64094zm-43.56457,-55.78391c-3.08086,0 -5.57839,2.49753 -5.57839,5.57839l0,43.56457c0,3.08086 2.49753,5.57839 5.57839,5.57839l31.04718,0c9.99402,0 18.09578,-8.10176 18.09578,-18.09578l0,-31.04718c0,-3.08086 -2.49753,-5.57839 -5.57839,-5.57839l-43.56457,0z"/>
   </g>
   <path fill="#f2f2f2" d="m529.64564,654.50452c2.06592,0.12937 3.20768,-2.43737 1.64468,-3.93333l-0.1555,-0.61819c0.02047,-0.04951 0.04105,-0.09897 0.06178,-0.14839c2.08924,-4.9818 9.16992,-4.94742 11.24139,0.04177c1.83859,4.42817 4.17942,8.86389 4.75579,13.54594c0.25838,2.0668 0.14213,4.17236 -0.31648,6.20047c4.30807,-9.41059 6.57515,-19.68661 6.57515,-30.02077c0,-2.59652 -0.14213,-5.19301 -0.43275,-7.78295c-0.239,-2.11854 -0.56839,-4.2241 -0.99471,-6.31034c-2.30575,-11.2772 -7.29852,-22.01825 -14.50012,-30.98962c-3.46197,-1.89248 -6.34906,-4.85065 -8.09295,-8.39652c-0.62649,-1.27891 -1.11739,-2.65462 -1.34991,-4.05618c0.39398,0.05168 1.48556,-5.94866 1.18841,-6.3168c0.54906,-0.83317 1.53178,-1.24733 2.13144,-2.06034c2.98232,-4.04341 7.0912,-3.33741 9.23621,2.15727c4.58224,2.31266 4.62659,6.14806 1.81495,9.83683c-1.78878,2.34682 -2.03456,5.52233 -3.60408,8.03478c0.16151,0.20671 0.32944,0.40695 0.4909,0.61366c2.96106,3.79788 5.52208,7.88002 7.68104,12.16859c-0.61017,-4.76621 0.29067,-10.50822 1.82641,-14.20959c1.74819,-4.21732 5.02491,-7.76915 7.91045,-11.41501c3.46601,-4.37924 10.57337,-2.46806 11.18401,3.08332c0.00591,0.05375 0.01166,0.10745 0.01731,0.1612c-0.4286,0.24178 -0.84849,0.49867 -1.25864,0.76992c-2.33949,1.54723 -1.53096,5.17386 1.24107,5.60174l0.06277,0.00967c-0.15503,1.54366 -0.41984,3.07444 -0.80734,4.57937c3.70179,14.31579 -4.29011,19.5299 -15.70147,19.76412c-0.25191,0.12916 -0.49738,0.25832 -0.74929,0.38109c1.15617,3.25525 2.07982,6.59447 2.76441,9.97891c0.61359,2.99043 1.03991,6.01317 1.27885,9.04888c0.29715,3.83006 0.27129,7.67959 -0.05168,11.50323l0.01939,-0.13562c0.82024,-4.21115 3.10671,-8.14462 6.4266,-10.87028c4.94561,-4.06264 11.93282,-5.55869 17.26826,-8.82425c2.56833,-1.57196 5.85945,0.45945 5.41121,3.43708l-0.02182,0.14261c-0.79443,0.32289 -1.56947,0.69755 -2.31871,1.11733c-0.4286,0.24184 -0.84848,0.49867 -1.25864,0.76992c-2.33949,1.54729 -1.53096,5.17392 1.24107,5.6018l0.06282,0.00965c0.0452,0.00646 0.08397,0.01295 0.12911,0.01944c-1.36282,3.23581 -3.26168,6.23922 -5.63854,8.82922c-2.31463,12.49713 -12.25603,13.68282 -22.89022,10.04354l-0.00648,0c-1.16259,5.06378 -2.86128,10.01127 -5.0444,14.72621l-18.02019,0c-0.06463,-0.20022 -0.12274,-0.40692 -0.18089,-0.60717c1.6664,0.10341 3.34571,0.00649 4.98629,-0.29702c-1.33701,-1.64059 -2.67396,-3.29409 -4.01097,-4.93462c-0.03229,-0.0323 -0.05816,-0.0646 -0.08397,-0.09689c-0.67817,-0.8396 -1.36282,-1.67283 -2.04099,-2.51246l-0.00036,-0.00102c-0.04245,-2.57755 0.26652,-5.14662 0.87876,-7.63984l0.00057,-0.00035l0,-0.00001z"/>
   <path fill="#ffb6b6" d="m168.78737,648.5645c-3.6064,-2.44871 -4.12719,-7.75426 -1.05252,-10.84434l-13.84555,-32.85942l8.14731,-6.06427l16.15922,39.14786c2.14576,2.40847 2.4576,6.05203 0.53812,8.81979c-2.24941,3.24378 -6.70263,4.04981 -9.94657,1.80037l-0.00001,0.00001z"/>
   <path fill="#6c63ff" d="m158.59431,528.96568l-0.00002,0c-5.91691,-0.49308 -11.24935,3.56558 -12.35019,9.40005l-8.06268,42.7322l25,51l13,-6l-16,-48l8.69322,-34.77288c1.73306,-6.93225 -3.15941,-13.76597 -10.28033,-14.35938l0,0.00001z"/>
   <path fill="#e6e6e6" d="m170.15562,657.94144c-0.82715,0 -1.5,0.67285 -1.5,1.5l0,1c0,0.82715 0.67285,1.5 1.5,1.5l35,0c0.82715,0 1.5,-0.67285 1.5,-1.5l0,-1c0,-0.82715 -0.67285,-1.5 -1.5,-1.5l-35,0z"/>
   <path fill="#e6e6e6" d="m170.15562,668.94144c-0.82715,0 -1.5,0.67285 -1.5,1.5l0,1c0,0.82715 0.67285,1.5 1.5,1.5l35,0c0.82715,0 1.5,-0.67285 1.5,-1.5l0,-1c0,-0.82715 -0.67285,-1.5 -1.5,-1.5l-35,0z"/>
   <path fill="#e6e6e6" d="m170.15562,679.94144c-0.82715,0 -1.5,0.67285 -1.5,1.5l0,1c0,0.82715 0.67285,1.5 1.5,1.5l35,0c0.82715,0 1.5,-0.67285 1.5,-1.5l0,-1c0,-0.82715 -0.67285,-1.5 -1.5,-1.5l-35,0z"/>
  </g>
 </g>
</svg>