<svg width="960" height="550" xmlns="http://www.w3.org/2000/svg" version="1.1">
 <g>
  <title>Layer 1</title>
  <path id="svg_1" d="m-15.77777,-10.27778l984.99994,0l0,566.5l-984.99994,0l0,-566.5z" opacity="undefined" stroke="null" fill="#001220"/>
  <g id="svg_2">
   <path id="svg_3" fill="#00172c" d="m960,350c-63.5,-7.9 -126.9,-15.7 -175,-46.9c-48.1,-31.2 -80.7,-85.7 -107.3,-140.1c-26.6,-54.4 -47.2,-108.7 -67.7,-163l350,0l0,350z"/>
   <path id="svg_4" fill="#002145" d="m960,306.3c-55.5,-6.9 -111.1,-13.8 -153.1,-41.1c-42.1,-27.3 -70.7,-75 -93.9,-122.6c-23.3,-47.6 -41.3,-95.1 -59.2,-142.6l306.2,0l0,306.3z"/>
   <path id="svg_5" fill="#00295f" d="m960,262.5c-47.6,-5.9 -95.2,-11.8 -131.2,-35.2c-36.1,-23.4 -60.6,-64.2 -80.5,-105c-20,-40.9 -35.4,-81.6 -50.8,-122.3l262.5,0l0,262.5z"/>
   <path id="svg_6" fill="#003078" d="m960,218.8c-39.7,-5 -79.3,-9.9 -109.4,-29.4c-30,-19.4 -50.4,-53.5 -67.1,-87.5c-16.6,-34 -29.4,-68 -42.2,-101.9l218.7,0l0,218.8z"/>
   <path id="svg_7" fill="#163490" d="m960,175c-31.7,-3.9 -63.5,-7.9 -87.5,-23.4c-24,-15.6 -40.4,-42.9 -53.7,-70.1c-13.3,-27.2 -23.5,-54.4 -33.8,-81.5l175,0l0,175z"/>
   <path id="svg_8" fill="#4035a6" d="m960,131.3c-23.8,-3 -47.6,-5.9 -65.6,-17.6c-18,-11.7 -30.3,-32.2 -40.3,-52.6c-9.9,-20.4 -17.6,-40.7 -25.3,-61.1l131.2,0l0,131.3z"/>
   <path id="svg_9" fill="#6731b8" d="m960,87.5c-15.9,-2 -31.7,-3.9 -43.7,-11.7c-12.1,-7.8 -20.2,-21.4 -26.9,-35c-6.6,-13.7 -11.8,-27.2 -16.9,-40.8l87.5,0l0,87.5z"/>
   <path id="svg_10" fill="#7b2cbf" d="m960,43.8c-7.9,-1 -15.9,-2 -21.9,-5.9c-6,-3.9 -10.1,-10.7 -13.4,-17.5c-3.3,-6.8 -5.9,-13.6 -8.4,-20.4l43.7,0l0,43.8z"/>
  </g>
  <g id="svg_11" stroke="null">
   <path id="svg_12" fill="#00172c" d="m-10.73563,120.58932c85.28717,19.56186 170.72345,38.99752 251.23931,73.32544c80.51586,34.45412 156.40952,83.6743 200.69324,147.5343c44.28372,63.86002 57.10662,142.35988 69.92952,220.85974l-521.86208,0l0,-441.71948l0.00001,0z" stroke="null"/>
   <path id="svg_13" fill="#002145" d="m-17.37356,182.84018c74.70083,17.03775 149.40166,34.0755 219.77849,64.11242c70.52593,30.16313 136.87697,73.19922 175.64387,129.10829c38.7669,55.90907 49.94966,124.56489 61.28152,193.22072l-456.70387,0l0,-386.44144l0,0.00001l-0.00001,0z" stroke="null"/>
   <path id="svg_14" fill="#00295f" d="m1.26437,217.01919c63.96538,14.63984 127.93076,29.2797 188.46676,55.02563c60.3869,25.74594 117.19531,62.72417 150.44538,110.55607c33.25007,47.95812 42.94179,106.89612 52.48441,165.70791l-391.39656,0l0,-331.28961l0.00001,0z" stroke="null"/>
   <path id="svg_15" fill="#003078" d="m-3.73563,273.29724c53.37904,12.11573 106.60897,24.35768 157.00593,45.81262c50.39697,21.45495 97.81186,52.24911 125.396,92.13006c27.73324,40.00716 35.78483,88.97492 43.83641,138.06889l-326.23835,0l0,-276.01157l0.00001,0z" stroke="null"/>
   <path id="svg_16" fill="#163490" d="m1.26437,327.44907c42.64359,9.71782 85.28717,19.56186 125.54511,36.72581c40.40704,17.16395 78.27931,41.77405 100.49573,73.70406c22.06731,31.93001 28.47876,71.17993 34.89021,110.42987l-260.93104,0l0,-220.85974l-0.00001,0z" stroke="null"/>
   <path id="svg_17" fill="#4035a6" d="m1.26437,382.72711c32.05724,7.19371 63.96538,14.51364 94.23338,27.51281c30.268,12.87297 58.59766,31.29898 75.29724,55.27804c16.55048,23.97906 21.32179,53.38496 26.24221,82.79085l-195.77283,0l0,-165.5817l0,0.00001l0,-0.00001z" stroke="null"/>
   <path id="svg_18" fill="#6731b8" d="m1.26437,437.87894c21.32179,4.92202 42.64359,9.71782 62.77255,18.29981c20.12897,8.58198 39.0651,20.95012 50.24786,36.85203c11.03366,16.02811 14.31393,35.71617 17.4451,55.27804l-130.46552,0l0,-110.42987l0.00001,-0.00001z" stroke="null"/>
   <path id="svg_19" fill="#7b2cbf" d="m1.26437,493.15698c10.73545,2.39791 21.32179,4.79582 31.46083,9.0868c9.98993,4.29099 19.53255,10.47506 25.04938,18.42601c5.51683,8.07715 7.15697,17.79499 8.7971,27.63902l-65.30731,0l0,-55.15183z" stroke="null"/>
  </g>
  <g id="svg_22" stroke="null">
   <g transform="matrix(0.974958 0 0 0.836213 298.88 179.578)" id="svg_23" stroke="null">
    <path fill="#3f3d56" d="m87.31743,-88.84414l8.22992,3.89856c-3.37555,-4.71082 -6.28418,-12.06805 -7.84137,-17.92249c-2.63654,5.45343 -6.88672,12.1261 -11.09375,16.11194l8.69812,-2.23767c-5.35974,26.26794 -25.5191,45.12573 -48.60437,45.12573l-0.32679,0.9488c24.11316,0 45.46577,-18.59639 50.93824,-45.92488l0,0.00001z" id="svg_24" stroke="null"/>
    <path fill="#3f3d56" d="m62.43822,-128.8681l52,0c2.20557,0 4,1.79443 4,4c0,2.20557 -1.79443,4 -4,4l-52,0c-2.20557,0 -4,-1.79443 -4,-4c0,-2.20557 1.79443,-4 4,-4z" id="svg_25" stroke="null"/>
   </g>
   <path fill="#ffb6b6" d="m245.17822,146.9472c6.04474,-4.28393 13.5217,-5.08083 16.70008,-1.78114c3.17739,3.29971 0.85308,9.44669 -5.19458,13.73144c-2.38865,1.74016 -5.22773,2.96438 -8.28033,3.5698l-25.88027,17.87406l-9.52047,-10.59482l26.52376,-16.49598c1.2694,-2.45762 3.20761,-4.61923 5.65184,-6.30338l0,0.00001l-0.00001,0.00002l-0.00001,-0.00001l-0.00001,0z" id="svg_21" stroke="null"/>
   <path fill="#e6e6e6" d="m95.59813,187.27608c-0.01267,-0.79105 -0.00391,-7.68563 5.94725,-12.04397c6.83641,-5.0064 16.48362,-2.97943 19.86769,-2.26948c7.81625,1.64231 8.4568,4.51806 15.79725,7.4724c13.73229,5.52821 -3.47376,2.69929 4.69737,0.92652c2.82836,-0.61377 43.5202,-3.03462 53.64904,-8.38136c19.70001,-10.39916 33.12228,-16.70503 33.12228,-16.70503l8.77462,15.05184c0,0 -12.68812,15.13128 -30.54545,26.34156c-18.31753,11.49876 -27.4763,17.24856 -41.39576,19.46955c-1.19822,0.1915 -30.67804,4.50885 -54.42122,-10.70604c-5.41493,-3.47029 -15.33806,-9.82886 -15.49307,-19.15598l0.00001,0l0,-0.00001l0,-0.00001l-0.00001,0.00001z" id="svg_26" stroke="null"/>
   <g transform="matrix(0.974958 0 0 0.836213 298.88 179.578)" id="svg_27" stroke="null">
    <circle opacity="0.2" fill="#6c63ff" r="25.13289" cy="-35.41024" cx="-35.80359" id="svg_28" stroke="null"/>
    <circle fill="#fff" r="25.13289" cy="-24.22384" cx="-11.65766" id="svg_29" stroke="null"/>
    <circle opacity="0.5" fill="#6c63ff" r="25.13289" cy="-24.22384" cx="-11.65766" id="svg_30" stroke="null"/>
    <circle fill="#fff" r="25.13288" cy="-12.41597" cx="13.8297" id="svg_31" stroke="null"/>
    <circle opacity="0.8" fill="#6c63ff" r="25.13288" cy="-12.41597" cx="13.8297" id="svg_32" stroke="null"/>
    <circle fill="#6c63ff" r="25.13287" cy="-1.85104" cx="36.63419" id="svg_33" stroke="null"/>
   </g>
   <g transform="matrix(0.974958 0 0 0.836213 298.88 190.45)" id="svg_34" stroke="null">
    <path fill=" rgb(199, 125, 255)" d="m-153.79558,34.36293c-1.33478,-2.25069 -7.10919,0.15916 -8.1708,-1.88344c-1.05785,-2.03522 4.30724,-5.13625 7.37242,-12.2203c0.55281,-1.27751 4.03609,-9.32803 1.45742,-11.81214c-4.88783,-4.7086 -27.25471,14.7226 -35.08209,8.36378c-1.71786,-1.39548 -2.91794,-4.18131 -8.11695,-8.70435c-2.06832,-1.79935 -3.31896,-2.61176 -4.52936,-2.3095c-1.71747,0.42886 -1.85353,2.72746 -3.69518,7.24698c-2.76191,6.77793 -4.39543,6.36865 -6.00464,11.77634c-1.19458,4.01438 -0.9217,6.34829 -2.3274,6.80297c-1.98919,0.64346 -3.82014,-3.61452 -6.34111,-3.23327c-2.57249,0.38911 -4.12776,5.3468 -4.619,9.05872c-0.92189,6.9657 1.63622,11.56213 3.05409,16.39529c1.54079,5.25243 2.45525,13.24023 -1.10301,24.5481l-35.21877,99.22915c7.77523,-20.36152 30.2882,-76.17789 39.74814,-96.91965c2.73093,-5.9877 5.74623,-12.06109 11.93758,-14.45806c5.96083,-2.30781 14.14726,-0.92995 24.58399,-3.44425c1.21889,-0.29358 4.60134,-1.1542 5.02707,-3.14368c0.352,-1.64476 -1.63758,-2.56284 -1.33189,-4.1033c0.41,-2.06629 4.32248,-2.09167 9.13042,-4.47557c3.39027,-1.68105 5.50239,-3.68018 7.31867,-5.39939c0.5476,-0.51831 8.68742,-8.31833 6.91051,-11.31443l-0.0001,0l-0.00001,0z" id="svg_35" stroke="null"/>
    <path fill=" rgb(199, 125, 255)" d="m-292.35674,86.6013c-1.4898,0.00569 -1.97308,3.53515 -3.28191,3.46683c-1.30415,-0.06803 -1.27814,-3.59599 -3.87061,-7.14441c-0.46751,-0.63989 -3.41371,-4.67241 -5.377,-4.12347c-3.72128,1.04038 -0.63791,17.62471 -6.01732,19.63175c-1.18054,0.44049 -2.89415,0.2257 -6.61413,1.47238c-1.47991,0.49597 -2.2395,0.87538 -2.44039,1.55667c-0.28504,0.96666 0.80383,1.69673 2.49067,3.90457c2.52975,3.31119 1.85753,3.99489 4.04733,6.34497c1.62561,1.74459 2.84986,2.28408 2.66739,3.10518c-0.25812,1.16196 -2.87625,0.83206 -3.41651,2.17933c-0.55126,1.37487 1.43325,3.56863 3.11333,4.88074c3.15285,2.4623 6.14687,2.53298 8.92812,3.23163c3.02249,0.75925 7.20684,2.61519 11.73012,7.62431l38.54058,45.91638c-7.75019,-9.69109 -28.64951,-36.8454 -36.10019,-47.47309c-2.15087,-3.06798 -4.26169,-6.30029 -3.65171,-10.03069c0.58721,-3.5915 3.62552,-7.21185 5.40281,-13.05974c0.2076,-0.68297 0.76113,-2.5914 -0.09244,-3.37439c-0.7057,-0.64732 -1.73035,0.06431 -2.39823,-0.53023c-0.89584,-0.79746 0.22058,-2.72505 0.43774,-5.77262c0.15313,-2.14899 -0.21865,-3.76244 -0.53838,-5.14995c-0.0964,-0.4183 -1.57611,-6.66392 -3.55927,-6.6563l0,0.00014l0,0.00001z" id="svg_36" stroke="null"/>
    <path fill=" rgb(199, 125, 255)" d="m-262.63577,93.27299l-0.89757,-8.01245l0.41009,-0.60742c1.89767,-2.8088 2.86491,-5.55184 2.87649,-8.1556c0.00193,-0.41395 -0.01742,-0.82795 -0.03676,-1.24963c-0.07739,-1.67135 -0.17407,-3.74893 0.9092,-6.17084c0.60742,-1.35022 2.3136,-4.47629 4.87866,-4.0894c0.6906,0.09673 1.21291,0.41395 1.60945,0.78535c0.05804,-0.09283 0.11801,-0.1857 0.18184,-0.28629c0.79891,-1.2187 1.43147,-1.74097 2.04082,-2.24393c0.46813,-0.38689 0.95175,-0.78535 1.71004,-1.72939c0.33271,-0.41395 0.59193,-0.77763 0.81054,-1.08327c0.66353,-0.92464 1.53013,-2.02731 3.05833,-2.00796c1.63265,0.07739 2.48767,1.42761 3.05447,2.32132c1.01172,1.59396 1.47016,2.74304 1.77387,3.50519c0.11029,0.27857 0.23602,0.59193 0.29985,0.68867c0.52617,0.77377 4.80326,0.05027 6.41458,-0.21281c3.61934,-0.60356 6.7512,-1.12583 8.0415,1.1568c0.92469,1.63265 0.23795,3.79148 -2.10277,6.58871c-0.72929,0.87051 -1.50499,1.53206 -2.19366,2.05052c0.57066,0.34047 1.0813,0.86274 1.28837,1.68298l0,0c0.48748,1.94215 -1.18194,3.88822 -4.95991,5.79173c-0.9382,0.47585 -2.20138,1.11039 -3.97139,1.41603c-0.83374,0.14315 -1.58431,0.17798 -2.22652,0.19733c-0.01356,0.3714 -0.10059,0.77377 -0.32692,1.18773c-0.66353,1.2187 -2.04468,1.79901 -4.12617,1.65972c-2.2904,-0.11994 -4.17644,-0.5571 -5.84007,-0.94013c-1.45274,-0.33271 -2.70435,-0.61514 -3.68703,-0.54938c-1.82221,0.14701 -3.22666,1.60559 -4.87476,3.49747l-4.11454,4.809l-0.00005,0l0.00002,-0.00005z" id="svg_37" stroke="null"/>
    <path fill=" rgb(199, 125, 255)" d="m-258.47207,45.56682l-7.52275,2.90057l-0.69156,-0.24263c-3.19829,-1.12317 -6.09693,-1.36301 -8.61848,-0.71376c-0.40093,0.10315 -0.79645,0.22685 -1.19945,0.35254c-1.59705,0.49877 -3.58219,1.11931 -6.19965,0.68577c-1.46017,-0.24504 -4.91673,-1.10252 -5.19313,-3.68182c-0.08158,-0.69253 0.09278,-1.27824 0.35147,-1.75602c-0.10455,-0.03257 -0.20958,-0.06701 -0.32306,-0.10325c-1.38148,-0.4637 -2.04714,-0.94307 -2.68823,-1.40493c-0.49298,-0.35471 -1.00111,-0.72143 -2.10658,-1.21547c-0.48483,-0.21682 -0.90235,-0.37531 -1.25344,-0.50924c-1.06272,-0.40725 -2.34911,-0.96589 -2.718,-2.44903c-0.33927,-1.59888 0.74994,-2.76842 1.47064,-3.5434c1.28523,-1.38293 2.28041,-2.11787 2.94061,-2.60496c0.24147,-0.17731 0.51271,-0.37844 0.5901,-0.46471c0.615,-0.70522 -1.16968,-4.6589 -1.83288,-6.15082c-1.50186,-3.34786 -2.80147,-6.24481 -0.92073,-8.07189c1.34472,-1.30854 3.60713,-1.19188 6.9066,0.36276c1.02702,0.48463 1.86371,1.06716 2.53988,1.60182c0.18459,-0.63835 0.56024,-1.26482 1.30115,-1.67308l0,0c1.75501,-0.96415 4.06084,0.15704 6.86038,3.32861c0.69827,0.7868 1.63246,1.84774 2.37705,3.48232c0.34993,0.77016 0.57399,1.48734 0.75563,2.10368c0.36272,-0.0811 0.77397,-0.09895 1.23182,0.01496c1.34713,0.33271 2.25884,1.52149 2.65205,3.57023c0.46495,2.24591 0.52048,4.18117 0.57196,5.88754c0.04665,1.48965 0.0909,2.77194 0.40382,3.7058c0.60443,1.72534 2.3715,2.71385 4.61958,3.8282l5.69538,2.76017l-0.00019,0.00005l0.00001,-0.00001z" id="svg_38" stroke="null"/>
    <path fill=" rgb(199, 125, 255)" d="m-262.63577,21.96189l-0.89757,-8.01245l0.41009,-0.60742c1.89767,-2.8088 2.86491,-5.55184 2.87649,-8.1556c0.00193,-0.41395 -0.01742,-0.82795 -0.03676,-1.24963c-0.07739,-1.67135 -0.17407,-3.74893 0.9092,-6.17084c0.60742,-1.35022 2.3136,-4.47629 4.87866,-4.0894c0.6906,0.09673 1.21291,0.41395 1.60945,0.78535c0.05804,-0.09283 0.11801,-0.1857 0.18184,-0.28629c0.79891,-1.2187 1.43147,-1.74097 2.04082,-2.24393c0.46813,-0.38689 0.95175,-0.78535 1.71004,-1.72939c0.33271,-0.41395 0.59193,-0.77763 0.81054,-1.08327c0.66353,-0.92464 1.53013,-2.02731 3.05833,-2.00796c1.63265,0.07739 2.48767,1.42761 3.05447,2.32132c1.01172,1.59396 1.47016,2.74304 1.77387,3.50519c0.11029,0.27857 0.23602,0.59193 0.29985,0.68867c0.52617,0.77377 4.80326,0.05027 6.41458,-0.21281c3.61934,-0.60356 6.7512,-1.12583 8.0415,1.1568c0.92469,1.63265 0.23795,3.79148 -2.10277,6.58871c-0.72929,0.87051 -1.50499,1.53206 -2.19366,2.05052c0.57066,0.34047 1.0813,0.86274 1.28837,1.68298l0,0c0.48748,1.94215 -1.18194,3.88822 -4.95991,5.79173c-0.9382,0.47585 -2.20138,1.11039 -3.97139,1.41603c-0.83374,0.14315 -1.58431,0.17798 -2.22652,0.19733c-0.01356,0.3714 -0.10059,0.77377 -0.32692,1.18773c-0.66353,1.2187 -2.04468,1.79901 -4.12617,1.65972c-2.2904,-0.11994 -4.17644,-0.5571 -5.84007,-0.94013c-1.45274,-0.33271 -2.70435,-0.61514 -3.68703,-0.54938c-1.82221,0.14701 -3.22666,1.60559 -4.87476,3.49747l-4.11454,4.809l-0.00005,0l0.00002,-0.00005z" id="svg_39" stroke="null"/>
    <path fill=" rgb(199, 125, 255)" d="m-254.43762,177.49064l-1.67912,-1.05235l-0.40623,-1.93829l0.40623,1.93829l-1.95764,0.22439c-0.03097,-0.18184 -0.13736,-0.5997 -0.29787,-1.25353c-0.8763,-3.58258 -3.54774,-14.48508 -5.77624,-31.65511c-1.55532,-11.98578 -2.43547,-24.30812 -2.61731,-36.63051c-0.18184,-12.34169 0.40237,-21.68506 0.87051,-29.1945c0.35398,-5.66402 0.78347,-11.05723 1.20514,-16.3112c1.12197,-14.03629 2.1801,-27.2949 1.39277,-41.9734c-0.17407,-3.27694 -0.53973,-10.09775 -4.52463,-17.35578c-2.31167,-4.20934 -5.49573,-7.94665 -9.4652,-11.10364l2.46833,-3.10282c4.38149,3.4897 7.90409,7.62943 10.47113,12.30304c4.41825,8.04724 4.81676,15.47939 5.00825,19.05034c0.80084,14.93773 -0.26888,28.32404 -1.40247,42.49571c-0.41786,5.23458 -0.8473,10.60458 -1.19935,16.24539c-0.46427,7.43987 -1.04265,16.7019 -0.86274,28.885c0.17798,12.17534 1.04844,24.34681 2.58248,36.18172c2.20138,16.95341 4.83418,27.69342 5.69885,31.22181c0.46041,1.88416 0.5571,2.27877 0.08511,3.02548l0,-0.00005l0,0.00001z" id="svg_40" stroke="null"/>
    <path fill=" rgb(199, 125, 255)" d="m-284.55295,-2.5203c-0.16249,0 -0.32692,-0.00386 -0.49327,-0.01549c-3.37367,-0.18184 -6.49776,-2.20138 -9.28722,-6.00063c-1.30767,-1.78743 -1.97699,-3.82632 -3.31177,-7.89251c-0.20698,-0.62677 -1.21291,-3.80697 -1.82419,-8.18267c-0.40044,-2.85912 -0.35012,-4.05457 0.21667,-5.11078c0.6287,-1.17615 1.64621,-1.99633 2.79139,-2.54957c-0.05027,-0.37917 -0.0097,-0.76991 0.15477,-1.16843c0.67511,-1.652 2.47026,-1.43533 3.44136,-1.33087c0.49134,0.0619 1.10455,0.14315 1.76615,0.10831c1.04072,-0.05027 1.5998,-0.35982 2.44705,-0.82409c0.81054,-0.44493 1.81835,-0.99817 3.3137,-1.30381c2.94809,-0.61514 5.41835,0.22053 6.23274,0.4952c4.28475,1.42761 6.39717,4.75872 8.84229,8.61597c0.48748,0.77377 2.16076,3.5903 3.26531,7.45145c0.79698,2.7856 0.68481,4.02364 0.44493,4.94442c-0.48748,1.89188 -1.63844,2.97516 -4.5614,5.36614c-3.05254,2.50316 -4.5846,3.7567 -5.90004,4.51884c-3.06219,1.76808 -4.98505,2.87842 -7.53848,2.87842l0,0.0001l0.00001,0z" id="svg_41" stroke="null"/>
   </g>
   <circle transform="rotate(-178.097 124.267 128.308)" stroke="null" fill="#ffb6b6" r="29.05859" cy="128.30788" cx="124.26686" id="svg_42"/>
   <g transform="matrix(0.974958 0 0 0.836213 298.88 186.268)" id="svg_43" stroke="null">
    <polygon fill="#ffb6b6" points="72.13577610254288,137.9281463623047 39.847125589847565,104.87700653076172 23.179524958133698,122.26322174072266 47.23573261499405,153.9534149169922 71.09707218408585,156.68246459960938 72.13577610254288,137.9281463623047 " id="svg_44" stroke="null"/>
    <path fill="#2f2e41" d="m-112.23339,75.94972c1.88857,0.15692 7.89007,1.35928 13.62641,-1.79676c3.91484,-2.15387 5.92265,-5.35646 6.60076,-6.37492c8.41291,-12.63529 40.70354,-32.3386 69.68363,-33.55112c6.56277,-0.27457 10.88253,0.48586 14.80888,2.53252c5.56743,2.90211 7.79007,7.05924 14.85498,16.79751c3.86456,5.32688 8.14065,10.34531 12.05176,15.6381c22.89761,30.98673 31.57809,33.41933 30.69089,43.35349c-0.98437,11.02209 -12.87155,21.47919 -20.77229,20.27203c-3.23557,-0.49436 -4.48861,-2.74421 -8.8115,-7.29884c-12.67503,-13.35438 -17.91904,-10.88716 -26.94319,-21.11588c-10.53585,-11.94223 -9.15661,-21.84423 -14.65344,-22.2267c-5.09746,-0.35467 -7.26369,8.09257 -18.14632,19.31415c-4.97964,5.13476 -8.52567,7.49028 -19.32879,14.98488c-42.06982,29.18579 -42.74126,31.23684 -51.23141,33.56451c-3.71461,1.01839 -30.07911,8.24653 -39.47092,-3.25614c-14.69706,-18.00039 20.02356,-72.2507 37.04055,-70.83684l0,0.00001z" id="svg_45" stroke="null"/>
    <path fill="#2f2e41" d="m62.26433,145.39689c2.3747,-1.06633 5.15137,-2.31312 6.04472,-5.1803c0.60449,-1.94008 0.25639,-4.33223 -0.99307,-5.98523c-1.44165,-1.90726 -3.57548,-2.15863 -3.48915,-2.49608c0.13145,-0.51383 5.17729,-0.31297 10.71634,1.64505c1.04526,0.36949 5.78059,2.09976 11.80411,6.8023c4.82606,3.76768 4.17661,4.52299 7.2029,6.69545c9.28962,6.66861 18.00248,1.41287 23.02914,7.66672c1.93996,2.41361 2.76736,5.84038 1.95095,8.6112c-1.63952,5.56439 -9.61248,7.47928 -13.96999,8.46791c-10.49443,2.381 -18.43771,0.43726 -26.73198,-0.96036c-28.2074,-4.75317 -44.05602,-0.42414 -46.17728,-6.95898c-0.40147,-1.2368 0.25076,-1.13149 2.42568,-10.20766c2.1466,-8.95807 2.07617,-11.41819 3.90438,-12.13555c2.75194,-1.0798 4.59974,3.832 11.53217,5.51299c6.14328,1.48961 11.21238,-0.78653 12.75108,-1.47746z" id="svg_46" stroke="null"/>
   </g>
   <g transform="matrix(0.974958 0 0 0.836213 298.88 179.578)" id="svg_47" stroke="null">
    <polygon fill="#ffb6b6" points="7.552086412906647,250.83444213867188 -0.6056931614875793,205.3550567626953 -24.16037029027939,210.38182067871094 -22.050266683101654,250.1123046875 -3.838603436946869,265.76953125 7.552086412906647,250.83444213867188 " id="svg_48" stroke="null"/>
    <path fill="#2f2e41" d="m-110.20118,96.02023c1.47458,1.19034 5.76537,5.55531 12.28414,6.16501c4.44882,0.41611 7.90855,-1.10642 9.04156,-1.56836c14.05646,-5.73092 51.83954,-3.90205 76.50003,11.36805c5.58456,3.45805 8.73193,6.51298 10.83152,10.41128c2.97713,5.52767 2.48188,10.2156 2.85934,22.24075c0.20649,6.57783 0.92671,13.13152 1.19087,19.70728c1.54645,38.49787 7.36313,45.38515 1.05061,53.10699c-7.00383,8.56748 -22.71196,10.54513 -28.57157,5.1097c-2.39968,-2.22596 -2.17313,-4.79123 -3.19252,-10.98742c-2.98899,-18.1676 -8.71359,-19.0708 -10.43682,-32.60197c-2.01189,-15.79789 4.6897,-23.21682 0.35612,-26.61997c-4.01874,-3.15588 -10.55463,2.61738 -25.86082,5.79169c-7.00377,1.45251 -11.26065,1.41036 -24.4082,1.54542c-51.19964,0.52605 -52.90697,1.84615 -61.23923,-0.99535c-3.64552,-1.24322 -29.51974,-10.06694 -30.83182,-24.85869c-2.05321,-23.14739 57.13999,-48.53996 70.42679,-37.81438l0,-0.00003z" id="svg_49" stroke="null"/>
    <path fill="#2f2e41" d="m-4.80998,251.47139c2.56373,0.45115 5.56141,0.97869 7.91065,-0.89211c1.58961,-1.26588 2.64486,-3.44073 2.53921,-5.51013c-0.1219,-2.38771 -1.74638,-3.79393 -1.48546,-4.02467c0.3973,-0.35135 4.4597,2.64827 7.9435,7.37882c0.65742,0.89268 3.60406,4.98347 5.94759,12.25702c1.87764,5.82758 0.91611,6.08788 2.2003,9.58486c3.94203,10.73442 14.1028,11.27815 14.75035,19.27556c0.24989,3.0865 -0.98973,6.3866 -3.2212,8.22088c-4.48123,3.68361 -12.15376,0.79097 -16.31454,-0.83789c-10.02065,-3.92285 -15.50185,-9.99165 -21.58014,-15.80566c-20.67117,-19.77252 -36.21605,-25.09006 -34.30173,-31.68848c0.36231,-1.24884 0.84286,-0.79544 7.73911,-7.08423c6.8065,-6.20697 8.12967,-8.28215 10.04525,-7.84912c2.88345,0.65183 1.65425,5.75372 6.44656,11.03747c4.24679,4.68226 9.71937,5.64536 11.38055,5.93768z" id="svg_50" stroke="null"/>
   </g>
   <path fill="#2f2e41" d="m126.98497,127.79039c1.19042,-3.65091 -0.3042,-4.98132 1.21869,-6.62029c0,0 0.61325,-0.65976 6.0935,-2.43923c-1.61647,-8.04688 -0.40557,-9.4074 -0.40557,-9.4074c1.39517,-1.56874 4.19037,-1.94753 6.0935,-1.74267c4.02462,0.43399 4.73733,3.55474 7.3122,3.4845c3.55764,-0.09701 7.82502,-6.2047 6.50005,-11.49876c-1.08026,-4.31821 -5.73859,-7.52507 -6.90562,-6.96816c-1.15826,0.55106 -5.3262,-1.88148 -6.9066,-1.39397c-1.07928,0.33281 -6.16077,-0.11039 -7.3122,0.3487c-1.25868,0.50007 -4.86114,3.61746 -5.20628,3.22443c-2.39352,-2.72938 -2.34282,-3.68184 -3.73116,-4.27054c-2.46176,-1.04192 -5.13705,0.88472 -9.75055,2.78794c-9.49219,3.91598 -12.2718,1.58044 -16.65619,4.87847c-2.2151,1.66573 -3.4026,4.85003 -5.68791,11.15007c-3.19494,8.81034 -4.79288,13.2155 -3.24953,17.42166c1.57359,4.28977 3.89108,3.35573 7.3122,9.4074c3.8082,6.73737 2.49589,10.65335 6.0935,12.19618c2.78155,1.19161 7.25075,0.43317 8.93843,-1.74267c2.88881,-3.72533 -4.57841,-8.76352 -2.0318,-14.63455c1.56383,-3.60324 6.38596,-6.33598 9.344,-5.57504c3.34411,0.86048 3.59078,6.00319 5.68791,5.92373c1.79489,-0.06857 3.04188,-3.89341 3.24953,-4.52976l-0.00003,-0.00005l-0.00003,0.00001l-0.00003,-0.00002l-0.00001,0.00002z" id="svg_51" stroke="null"/>
   <path fill="#e6e6e6" d="m103.82873,152.87761c6.25535,-6.01488 31.73392,0.21071 34.12551,9.75694c0.98276,3.92602 -2.64797,5.58341 -1.62527,10.1048c1.49559,6.61195 9.96407,6.16121 16.24963,12.89188c8.92476,9.55542 -0.26908,18.89675 9.75055,34.84416c2.14102,3.40758 3.94565,6.27911 7.71874,9.05953c8.6586,6.37781 16.71663,4.19027 21.1254,10.10396c3.29635,4.42274 1.9421,9.874 1.62428,11.15007c-1.3006,5.23638 -4.82703,6.51159 -7.3122,10.8022c-4.13383,7.13793 0.54695,12.37762 0.81215,20.90616c0.33247,10.67008 -6.27872,25.46101 -19.50016,30.31439c-14.85349,5.45211 -32.76836,-3.57816 -41.43771,-12.54403c-5.17217,-5.35009 -6.67456,-10.28542 -8.93744,-16.3764c-10.11421,-27.22459 -15.82748,-24.76195 -23.5628,-46.34294c-8.84189,-24.66996 -10.58025,-53.57283 0,-62.71848c1.40297,-1.2125 5.26186,-4.01466 7.71874,-9.05953c3.30705,-6.78921 0.45044,-10.1993 3.25052,-12.89274l0.00004,0.00001l0.00003,0l-0.00001,0.00002z" id="svg_52" stroke="null"/>
   <path fill="#3f3d56" d="m302.49214,176.14356c1.53751,8.66065 -5.42662,16.77945 -15.52427,18.099c-10.09765,1.3187 -19.5645,-4.65436 -21.102,-13.31502c-1.53751,-8.6615 5.42662,-16.78028 15.52427,-18.099c10.09765,-1.31955 19.5645,4.65436 21.102,13.31502zm-34.69877,4.53228c1.37567,7.74918 9.84612,13.09342 18.88104,11.91268c9.03494,-1.17989 15.26589,-8.44408 13.89024,-16.19327c-1.37665,-7.74918 -9.84612,-13.09342 -18.88104,-11.91354c-9.03494,1.17989 -15.26589,8.44408 -13.89024,16.19409l0,0.00001l0,0.00001l0,0.00001l0,0.00001z" id="svg_53" stroke="null"/>
   <path fill="#3f3d56" d="m274.69215,179.7744c0.79752,4.48629 5.70059,7.58027 10.93123,6.89708c5.23065,-0.68318 8.838,-4.88851 8.04146,-9.37562c-0.79655,-4.48629 -5.69959,-7.58027 -10.93027,-6.89708c-5.23164,0.68318 -8.83897,4.88934 -8.04244,9.37562l0.00001,0l0.00001,0z" id="svg_54" stroke="null"/>
   <path fill="#6c63ff" d="m358.11156,44.98356c2.30577,12.9889 16.50118,21.94557 31.64522,19.96793c15.14405,-1.97763 25.58779,-14.15374 23.28104,-27.14264c-2.30577,-12.98806 -16.50215,-21.94557 -31.64522,-19.96793c-15.14405,1.97849 -25.58779,14.15374 -23.28104,27.14264z" id="svg_55" stroke="null"/>
   <path fill="#ffb6b6" d="m254.48809,174.53721c7.63977,-1.51438 14.74429,0.63886 15.86745,4.8099c1.12314,4.17018 -4.16015,8.77689 -11.80285,10.29129c-3.04382,0.64054 -6.22121,0.64723 -9.26796,0.01839l-32.46611,6.06673l-2.76401,-11.0171l32.0927,-6.69722c2.41691,-1.71172 5.27745,-2.9025 8.34077,-3.47196l0.00001,-0.00001l-0.00001,-0.00001l0.00001,-0.00001z" id="svg_20" stroke="null"/>
   <path fill="#e6e6e6" d="m99.42094,182.1643c0.20084,-0.77183 2.07471,-7.47659 9.04274,-10.53127c8.0044,-3.50959 16.8395,0.38131 19.93889,1.74601c7.15911,3.15252 7.0041,6.0776 13.34523,10.41254c11.86233,8.11043 27.11652,7.93231 35.54502,7.83449c2.91709,-0.03345 11.92666,-0.28933 23.22546,-3.47447c21.97555,-6.19551 36.01401,-13.96893 36.01401,-13.96893l5.76883,16.76273c0,0 -17.01693,16.12971 -37.41989,23.48002c-20.92847,7.53929 -80.6203,8.03684 -94.76012,7.42724c-1.21773,-0.05185 18.16639,1.55284 -0.81215,-17.97188c-4.32979,-4.45284 -12.26109,-12.61261 -9.88803,-21.71645l0.00001,-0.00001l0.00001,-0.00001l-0.00001,0.00001l0,-0.00002z" id="svg_56" stroke="null"/>
  </g>
 </g>

</svg>