<svg width="960" height="550" xmlns="http://www.w3.org/2000/svg" version="1.1">
















 <g>
  <title>Layer 1</title>
  <rect stroke="null" x="-24.16667" y="-9" id="svg_1" fill="#001220" height="566.5" width="984.99996"/>
  <g id="svg_2">
   <path id="svg_3" fill="#00172c" d="m960,350c-63.5,-7.9 -126.9,-15.7 -175,-46.9c-48.1,-31.2 -80.7,-85.7 -107.3,-140.1c-26.6,-54.4 -47.2,-108.7 -67.7,-163l350,0l0,350z"/>
   <path id="svg_4" fill="#002145" d="m960,306.3c-55.5,-6.9 -111.1,-13.8 -153.1,-41.1c-42.1,-27.3 -70.7,-75 -93.9,-122.6c-23.3,-47.6 -41.3,-95.1 -59.2,-142.6l306.2,0l0,306.3z"/>
   <path id="svg_5" fill="#00295f" d="m960,262.5c-47.6,-5.9 -95.2,-11.8 -131.2,-35.2c-36.1,-23.4 -60.6,-64.2 -80.5,-105c-20,-40.9 -35.4,-81.6 -50.8,-122.3l262.5,0l0,262.5z"/>
   <path id="svg_6" fill="#003078" d="m960,218.8c-39.7,-5 -79.3,-9.9 -109.4,-29.4c-30,-19.4 -50.4,-53.5 -67.1,-87.5c-16.6,-34 -29.4,-68 -42.2,-101.9l218.7,0l0,218.8z"/>
   <path id="svg_7" fill="#163490" d="m960,175c-31.7,-3.9 -63.5,-7.9 -87.5,-23.4c-24,-15.6 -40.4,-42.9 -53.7,-70.1c-13.3,-27.2 -23.5,-54.4 -33.8,-81.5l175,0l0,175z"/>
   <path id="svg_8" fill="#4035a6" d="m960,131.3c-23.8,-3 -47.6,-5.9 -65.6,-17.6c-18,-11.7 -30.3,-32.2 -40.3,-52.6c-9.9,-20.4 -17.6,-40.7 -25.3,-61.1l131.2,0l0,131.3z"/>
   <path id="svg_9" fill="#6731b8" d="m960,87.5c-15.9,-2 -31.7,-3.9 -43.7,-11.7c-12.1,-7.8 -20.2,-21.4 -26.9,-35c-6.6,-13.7 -11.8,-27.2 -16.9,-40.8l87.5,0l0,87.5z"/>
   <path id="svg_10" fill="#7b2cbf" d="m960,43.8c-7.9,-1 -15.9,-2 -21.9,-5.9c-6,-3.9 -10.1,-10.7 -13.4,-17.5c-3.3,-6.8 -5.9,-13.6 -8.4,-20.4l43.7,0l0,43.8z"/>
  </g>
  <g stroke="null" id="svg_11">
   <path stroke="null" id="svg_12" fill="#00172c" d="m-3.33333,203.14102c57.2,15.54542 114.5,30.99055 168.5,58.27026c54,27.38 104.9,66.49429 134.6,117.24256c29.7,50.74828 38.3,113.13055 46.9,175.51282l-350,0l0,-351.02564z"/>
   <path stroke="null" id="svg_13" fill="#002145" d="m-3.33333,247.06938c50.1,13.53956 100.2,27.07912 147.4,50.94886c47.3,23.97004 91.8,58.16996 117.8,102.59978c26,44.42982 33.5,98.98923 41.1,153.54864l-306.3,0l0,-307.09729z"/>
   <path stroke="null" id="svg_14" fill="#00295f" d="m-3.33333,290.89743c42.9,11.63399 85.8,23.26799 126.4,43.72777c40.5,20.45978 78.6,49.84564 100.9,87.8567c22.3,38.11136 28.8,84.94821 35.2,131.68476l-262.5,0l0,-263.26923z"/>
   <path stroke="null" id="svg_15" fill="#003078" d="m-3.33333,334.82579c35.8,9.62813 71.5,19.35656 105.3,36.40637c33.8,17.04982 65.6,41.52132 84.1,73.21392c18.6,31.79289 24,70.70659 29.4,109.72059l-218.8,0l0,-219.34088z"/>
   <path stroke="null" id="svg_16" fill="#163490" d="m-3.33333,378.65385c28.6,7.72256 57.2,15.54542 84.2,29.18527c27.1,13.63985 52.5,33.197 67.4,58.57114c14.8,25.37414 19.1,56.56527 23.4,87.75641l-175,0l0,-175.51282z"/>
   <path stroke="null" id="svg_17" fill="#4035a6" d="m-3.33333,422.5822c21.5,5.7167 42.9,11.5337 63.2,21.86388c20.3,10.22989 39.3,24.87267 50.5,43.92835c11.1,19.05568 14.3,42.42396 17.6,65.79223l-131.3,0l0,-131.58447z"/>
   <path stroke="null" id="svg_18" fill="#6731b8" d="m-3.33333,466.41026c14.3,3.91143 28.6,7.72256 42.1,14.54249c13.5,6.81993 26.2,16.64864 33.7,29.28557c7.4,12.73722 9.6,28.38293 11.7,43.92835l-87.5,0l0,-87.75641z"/>
   <path stroke="null" id="svg_19" fill="#7b2cbf" d="m-3.33333,510.33861c7.2,1.90557 14.3,3.81114 21.1,7.2211c6.7,3.40996 13.1,8.32432 16.8,14.64278c3.7,6.41875 4.8,14.14132 5.9,21.96418l-43.8,0l0,-43.82806z"/>
  </g>
  <g transform="rotate(5 141.449 247.517)" stroke="null">
   <g stroke="null" transform="matrix(0.582457 0 0 0.544741 174.88 206.01)">
    <path stroke="null" fill="#3f3d56" d="m130.70426,-65.55008l8.22992,3.89856c-3.37555,-4.71082 -6.28418,-12.06805 -7.84137,-17.92249c-2.63654,5.45343 -6.88672,12.1261 -11.09375,16.11194l8.69812,-2.23767c-5.35974,26.26794 -25.5191,45.12573 -48.60437,45.12573l-0.32679,0.9488c24.11316,0 45.46577,-18.59639 50.93824,-45.92488l0,0.00001z"/>
    <path stroke="null" fill="#3f3d56" d="m105.82505,-105.57404l52,0c2.20557,0 4,1.79443 4,4c0,2.20557 -1.79443,4 -4,4l-52,0c-2.20557,0 -4,-1.79443 -4,-4c0,-2.20557 1.79443,-4 4,-4z"/>
   </g>
   <path stroke="null" fill="#ffb6b6" d="m168.06861,197.44176c3.61123,-2.79071 8.0781,-3.30985 9.97691,-1.1603c1.89823,2.14955 0.50965,6.15394 -3.10333,8.94519c-1.42702,1.13361 -3.12314,1.93111 -4.94681,2.3255l-15.46133,11.64384l-5.68769,-6.90187l15.84575,-10.74611c0.75836,-1.60099 1.91628,-3.00915 3.3765,-4.10626z" id="svg_21"/>
   <path stroke="null" fill="#e6e6e6" d="m78.70686,223.71353c-0.00757,-0.51532 -0.00233,-5.00671 3.55299,-7.8459c4.08419,-3.26136 9.8476,-1.94091 11.86931,-1.47843c4.66956,1.06987 5.05223,2.94324 9.43755,4.86781c8.20391,3.60128 -2.07529,1.75842 2.80628,0.60357c1.68971,-0.39984 25.99972,-1.97687 32.05087,-5.45994c11.76913,-6.7744 19.78782,-10.88229 19.78782,-10.88229l5.24211,9.80534c0,0 -7.5801,9.85709 -18.24838,17.15989c-10.94321,7.49073 -16.41481,11.23637 -24.73055,12.6832c-0.71584,0.12475 -18.3276,2.93724 -32.51218,-6.97432c-3.23497,-2.26068 -9.16322,-6.40289 -9.25583,-12.47893z"/>
   <g stroke="null" transform="matrix(0.582457 0 0 0.544741 174.88 206.01)">
    <circle stroke="null" opacity="0.2" fill="#6c63ff" r="25.13289" cy="-12.11618" cx="7.58324"/>
    <circle stroke="null" fill="#fff" r="25.13289" cy="-0.92978" cx="31.72917"/>
    <circle stroke="null" opacity="0.5" fill="#6c63ff" r="25.13289" cy="-0.92978" cx="31.72917"/>
    <circle stroke="null" fill="#fff" r="25.13289" cy="10.87809" cx="57.21653"/>
    <circle stroke="null" opacity="0.8" fill="#6c63ff" r="25.13289" cy="10.87809" cx="57.21653"/>
    <circle stroke="null" fill="#6c63ff" r="25.13288" cy="21.44302" cx="80.02102"/>
   </g>
   <g stroke="null" transform="matrix(0.582457 0 0 0.544741 174.88 213.092)">
    <path stroke="null" fill=" rgb(199, 125, 255)" d="m-110.40875,41.0477c-1.33478,-2.25069 -7.10919,0.15916 -8.1708,-1.88344c-1.05785,-2.03522 4.30724,-5.13625 7.37242,-12.2203c0.55281,-1.27751 4.03609,-9.32803 1.45742,-11.81214c-4.88783,-4.7086 -27.25471,14.7226 -35.08209,8.36378c-1.71786,-1.39548 -2.91794,-4.18131 -8.11695,-8.70435c-2.06832,-1.79935 -3.31896,-2.61176 -4.52936,-2.3095c-1.71747,0.42886 -1.85353,2.72746 -3.69518,7.24698c-2.76191,6.77793 -4.39543,6.36865 -6.00464,11.77634c-1.19458,4.01438 -0.9217,6.34829 -2.3274,6.80297c-1.98919,0.64346 -3.82014,-3.61452 -6.34111,-3.23327c-2.57249,0.38911 -4.12776,5.3468 -4.619,9.05872c-0.92189,6.9657 1.63622,11.56213 3.05409,16.39529c1.54079,5.25243 2.45525,13.24023 -1.10301,24.5481l-35.21877,99.22915c7.77523,-20.36152 30.2882,-76.17789 39.74814,-96.91965c2.73093,-5.9877 5.74623,-12.06109 11.93758,-14.45806c5.96083,-2.30781 14.14726,-0.92995 24.58399,-3.44425c1.21889,-0.29358 4.60134,-1.1542 5.02707,-3.14368c0.352,-1.64476 -1.63758,-2.56284 -1.33189,-4.1033c0.41,-2.06629 4.32248,-2.09167 9.13042,-4.47557c3.39027,-1.68105 5.50239,-3.68018 7.31867,-5.39939c0.5476,-0.51831 8.68742,-8.31833 6.91051,-11.31443l-0.0001,0l-0.00001,0z"/>
    <path stroke="null" fill=" rgb(199, 125, 255)" d="m-248.96991,93.28607c-1.4898,0.00569 -1.97308,3.53515 -3.28191,3.46683c-1.30415,-0.06803 -1.27814,-3.59599 -3.87061,-7.14441c-0.46751,-0.63989 -3.41371,-4.67241 -5.377,-4.12347c-3.72128,1.04038 -0.63791,17.62471 -6.01732,19.63175c-1.18054,0.44049 -2.89415,0.2257 -6.61413,1.47238c-1.47991,0.49597 -2.2395,0.87538 -2.44039,1.55667c-0.28504,0.96666 0.80383,1.69673 2.49067,3.90457c2.52975,3.31119 1.85753,3.99489 4.04733,6.34497c1.62561,1.74459 2.84986,2.28408 2.66739,3.10518c-0.25812,1.16196 -2.87625,0.83206 -3.41651,2.17933c-0.55126,1.37487 1.43325,3.56863 3.11333,4.88074c3.15285,2.4623 6.14687,2.53298 8.92812,3.23163c3.02249,0.75925 7.20684,2.61519 11.73012,7.62431l38.54058,45.91638c-7.75019,-9.69109 -28.64951,-36.8454 -36.10019,-47.47309c-2.15087,-3.06798 -4.26169,-6.30029 -3.65171,-10.03069c0.58721,-3.5915 3.62552,-7.21185 5.40281,-13.05974c0.2076,-0.68297 0.76113,-2.5914 -0.09244,-3.37439c-0.7057,-0.64732 -1.73035,0.06431 -2.39823,-0.53023c-0.89584,-0.79746 0.22058,-2.72505 0.43774,-5.77262c0.15313,-2.14899 -0.21865,-3.76244 -0.53838,-5.14995c-0.0964,-0.4183 -1.57611,-6.66392 -3.55927,-6.6563l0,0.00014l0,0.00001z"/>
    <path stroke="null" fill=" rgb(199, 125, 255)" d="m-219.24894,99.95776l-0.89757,-8.01245l0.41009,-0.60742c1.89767,-2.8088 2.86491,-5.55184 2.87649,-8.1556c0.00193,-0.41395 -0.01742,-0.82795 -0.03676,-1.24963c-0.07739,-1.67135 -0.17407,-3.74893 0.9092,-6.17084c0.60742,-1.35022 2.3136,-4.47629 4.87866,-4.0894c0.6906,0.09673 1.21291,0.41395 1.60945,0.78535c0.05804,-0.09283 0.11801,-0.1857 0.18184,-0.28629c0.79891,-1.2187 1.43147,-1.74097 2.04082,-2.24393c0.46813,-0.38689 0.95175,-0.78535 1.71004,-1.72939c0.33271,-0.41395 0.59193,-0.77763 0.81054,-1.08327c0.66353,-0.92464 1.53013,-2.02731 3.05833,-2.00796c1.63265,0.07739 2.48767,1.42761 3.05447,2.32132c1.01172,1.59396 1.47016,2.74304 1.77387,3.50519c0.11029,0.27857 0.23602,0.59193 0.29985,0.68867c0.52617,0.77377 4.80326,0.05027 6.41458,-0.21281c3.61934,-0.60356 6.7512,-1.12583 8.0415,1.1568c0.92469,1.63265 0.23795,3.79148 -2.10277,6.58871c-0.72929,0.87051 -1.50499,1.53206 -2.19366,2.05052c0.57066,0.34047 1.0813,0.86274 1.28837,1.68298l0,0c0.48748,1.94215 -1.18194,3.88822 -4.95991,5.79173c-0.9382,0.47585 -2.20138,1.11039 -3.97139,1.41603c-0.83374,0.14315 -1.58431,0.17798 -2.22652,0.19733c-0.01356,0.3714 -0.10059,0.77377 -0.32692,1.18773c-0.66353,1.2187 -2.04468,1.79901 -4.12617,1.65972c-2.2904,-0.11994 -4.17644,-0.5571 -5.84007,-0.94013c-1.45274,-0.33271 -2.70435,-0.61514 -3.68703,-0.54938c-1.82221,0.14701 -3.22666,1.60559 -4.87476,3.49747l-4.11454,4.809l-0.00005,0l0.00002,-0.00005z"/>
    <path stroke="null" fill=" rgb(199, 125, 255)" d="m-215.08524,52.25159l-7.52275,2.90057l-0.69156,-0.24263c-3.19829,-1.12317 -6.09693,-1.36301 -8.61848,-0.71376c-0.40093,0.10315 -0.79645,0.22685 -1.19945,0.35254c-1.59705,0.49877 -3.58219,1.11931 -6.19965,0.68577c-1.46017,-0.24504 -4.91673,-1.10252 -5.19313,-3.68182c-0.08158,-0.69253 0.09278,-1.27824 0.35147,-1.75602c-0.10455,-0.03257 -0.20958,-0.06701 -0.32306,-0.10325c-1.38148,-0.4637 -2.04714,-0.94307 -2.68823,-1.40493c-0.49298,-0.35471 -1.00111,-0.72143 -2.10658,-1.21547c-0.48483,-0.21682 -0.90235,-0.37531 -1.25344,-0.50924c-1.06272,-0.40725 -2.34911,-0.96589 -2.718,-2.44903c-0.33927,-1.59888 0.74994,-2.76842 1.47064,-3.5434c1.28523,-1.38293 2.28041,-2.11787 2.94061,-2.60496c0.24147,-0.17731 0.51271,-0.37844 0.5901,-0.46471c0.615,-0.70522 -1.16968,-4.6589 -1.83288,-6.15082c-1.50186,-3.34786 -2.80147,-6.24481 -0.92073,-8.07189c1.34472,-1.30854 3.60713,-1.19188 6.9066,0.36276c1.02702,0.48463 1.86371,1.06716 2.53988,1.60182c0.18459,-0.63835 0.56024,-1.26482 1.30115,-1.67308l0,0c1.75501,-0.96415 4.06084,0.15704 6.86038,3.32861c0.69827,0.7868 1.63246,1.84774 2.37705,3.48232c0.34993,0.77016 0.57399,1.48734 0.75563,2.10368c0.36272,-0.0811 0.77397,-0.09895 1.23182,0.01496c1.34713,0.33271 2.25884,1.52149 2.65205,3.57023c0.46495,2.24591 0.52048,4.18117 0.57196,5.88754c0.04665,1.48965 0.0909,2.77194 0.40382,3.7058c0.60443,1.72534 2.3715,2.71385 4.61958,3.8282l5.69538,2.76017l-0.00019,0.00005l0.00001,-0.00001z"/>
    <path stroke="null" fill=" rgb(199, 125, 255)" d="m-219.24894,28.64666l-0.89757,-8.01245l0.41009,-0.60742c1.89767,-2.8088 2.86491,-5.55184 2.87649,-8.1556c0.00193,-0.41395 -0.01742,-0.82795 -0.03676,-1.24963c-0.07739,-1.67135 -0.17407,-3.74893 0.9092,-6.17084c0.60742,-1.35022 2.3136,-4.47629 4.87866,-4.0894c0.6906,0.09673 1.21291,0.41395 1.60945,0.78535c0.05804,-0.09283 0.11801,-0.1857 0.18184,-0.28629c0.79891,-1.2187 1.43147,-1.74097 2.04082,-2.24393c0.46813,-0.38689 0.95175,-0.78535 1.71004,-1.72939c0.33271,-0.41395 0.59193,-0.77763 0.81054,-1.08327c0.66353,-0.92464 1.53013,-2.02731 3.05833,-2.00796c1.63265,0.07739 2.48767,1.42761 3.05447,2.32132c1.01172,1.59396 1.47016,2.74304 1.77387,3.50519c0.11029,0.27857 0.23602,0.59193 0.29985,0.68867c0.52617,0.77377 4.80326,0.05027 6.41458,-0.21281c3.61934,-0.60356 6.7512,-1.12583 8.0415,1.1568c0.92469,1.63265 0.23795,3.79148 -2.10277,6.58871c-0.72929,0.87051 -1.50499,1.53206 -2.19366,2.05052c0.57066,0.34047 1.0813,0.86274 1.28837,1.68298l0,0c0.48748,1.94215 -1.18194,3.88822 -4.95991,5.79173c-0.9382,0.47585 -2.20138,1.11039 -3.97139,1.41603c-0.83374,0.14315 -1.58431,0.17798 -2.22652,0.19733c-0.01356,0.3714 -0.10059,0.77377 -0.32692,1.18773c-0.66353,1.2187 -2.04468,1.79901 -4.12617,1.65972c-2.2904,-0.11994 -4.17644,-0.5571 -5.84007,-0.94013c-1.45274,-0.33271 -2.70435,-0.61514 -3.68703,-0.54938c-1.82221,0.14701 -3.22666,1.60559 -4.87476,3.49747l-4.11454,4.809l-0.00005,0l0.00002,-0.00005z"/>
    <path stroke="null" fill=" rgb(199, 125, 255)" d="m-211.05079,184.17541l-1.67912,-1.05235l-0.40623,-1.93829l0.40623,1.93829l-1.95764,0.22439c-0.03097,-0.18184 -0.13736,-0.5997 -0.29787,-1.25353c-0.8763,-3.58258 -3.54774,-14.48508 -5.77624,-31.65511c-1.55532,-11.98578 -2.43547,-24.30812 -2.61731,-36.63051c-0.18184,-12.34169 0.40237,-21.68506 0.87051,-29.1945c0.35398,-5.66402 0.78347,-11.05723 1.20514,-16.3112c1.12197,-14.03629 2.1801,-27.2949 1.39277,-41.9734c-0.17407,-3.27694 -0.53973,-10.09775 -4.52463,-17.35578c-2.31167,-4.20934 -5.49573,-7.94665 -9.4652,-11.10364l2.46833,-3.10282c4.38149,3.4897 7.90409,7.62943 10.47113,12.30304c4.41825,8.04724 4.81676,15.47939 5.00825,19.05034c0.80084,14.93773 -0.26888,28.32404 -1.40247,42.49571c-0.41786,5.23458 -0.8473,10.60458 -1.19935,16.24539c-0.46427,7.43987 -1.04265,16.7019 -0.86274,28.885c0.17798,12.17534 1.04844,24.34681 2.58248,36.18172c2.20138,16.95341 4.83418,27.69342 5.69885,31.22181c0.46041,1.88416 0.5571,2.27877 0.08511,3.02548l0,-0.00005l0,0.00001z"/>
    <path stroke="null" fill=" rgb(199, 125, 255)" d="m-241.16612,4.16447c-0.16249,0 -0.32692,-0.00386 -0.49327,-0.01549c-3.37367,-0.18184 -6.49776,-2.20138 -9.28722,-6.00063c-1.30767,-1.78743 -1.97699,-3.82632 -3.31177,-7.89251c-0.20698,-0.62677 -1.21291,-3.80697 -1.82419,-8.18267c-0.40044,-2.85912 -0.35012,-4.05457 0.21667,-5.11078c0.6287,-1.17615 1.64621,-1.99633 2.79139,-2.54957c-0.05027,-0.37917 -0.0097,-0.76991 0.15477,-1.16843c0.67511,-1.652 2.47026,-1.43533 3.44136,-1.33087c0.49134,0.0619 1.10455,0.14315 1.76615,0.10831c1.04072,-0.05027 1.5998,-0.35982 2.44705,-0.82409c0.81054,-0.44493 1.81835,-0.99817 3.3137,-1.30381c2.94809,-0.61514 5.41835,0.22053 6.23274,0.4952c4.28475,1.42761 6.39717,4.75872 8.84229,8.61597c0.48748,0.77377 2.16076,3.5903 3.26531,7.45145c0.79698,2.7856 0.68481,4.02364 0.44493,4.94442c-0.48748,1.89188 -1.63844,2.97516 -4.5614,5.36614c-3.05254,2.50316 -4.5846,3.7567 -5.90004,4.51884c-3.06219,1.76808 -4.98505,2.87842 -7.53848,2.87842l0,0.0001l0.00001,0z"/>
   </g>
   <circle stroke="null" fill="#ffb6b6" r="13.89008" cy="181.69711" cx="94.96848"/>
   <g stroke="null" transform="matrix(0.582457 0 0 0.544741 174.88 210.368)">
    <polygon stroke="null" fill="#ffb6b6" points="108.34280395507818,166.00566291809082 76.05416870117193,132.95451545715332 59.3865585327149,150.34077644348145 83.44277191162115,182.03096199035645 107.30410766601568,184.7600269317627 108.34280395507818,166.00566291809082 "/>
    <path stroke="null" fill="#2f2e41" d="m-76.02635,104.02725c1.88857,0.15692 7.89007,1.35928 13.62641,-1.79676c3.91484,-2.15387 5.92265,-5.35646 6.60076,-6.37492c8.41291,-12.63529 40.70354,-32.3386 69.68363,-33.55112c6.56277,-0.27457 10.88253,0.48586 14.80888,2.53252c5.56743,2.90211 7.79007,7.05924 14.85498,16.79751c3.86456,5.32688 8.14065,10.34531 12.05176,15.6381c22.89761,30.98673 31.57809,33.41933 30.69089,43.35349c-0.98437,11.02209 -12.87155,21.47919 -20.77229,20.27203c-3.23557,-0.49436 -4.48861,-2.74421 -8.8115,-7.29884c-12.67503,-13.35438 -17.91904,-10.88716 -26.94319,-21.11588c-10.53585,-11.94223 -9.15661,-21.84423 -14.65344,-22.2267c-5.09746,-0.35467 -7.26369,8.09257 -18.14632,19.31415c-4.97964,5.13476 -8.52567,7.49028 -19.32879,14.98488c-42.06982,29.18579 -42.74126,31.23684 -51.23141,33.56451c-3.71461,1.01839 -30.07911,8.24653 -39.47092,-3.25614c-14.69706,-18.00039 20.02356,-72.2507 37.04055,-70.83684l0,0.00001z"/>
    <path stroke="null" fill="#2f2e41" d="m98.47137,173.47442c2.3747,-1.06633 5.15137,-2.31312 6.04472,-5.1803c0.60449,-1.94008 0.25639,-4.33223 -0.99307,-5.98523c-1.44165,-1.90726 -3.57548,-2.15863 -3.48915,-2.49608c0.13145,-0.51383 5.17729,-0.31297 10.71634,1.64505c1.04526,0.36949 5.78059,2.09976 11.80411,6.8023c4.82606,3.76768 4.17661,4.52299 7.2029,6.69545c9.28962,6.66861 18.00248,1.41287 23.02914,7.66672c1.93996,2.41361 2.76736,5.84038 1.95095,8.6112c-1.63952,5.56439 -9.61248,7.47928 -13.96999,8.46791c-10.49443,2.381 -18.43771,0.43726 -26.73198,-0.96036c-28.2074,-4.75317 -44.05602,-0.42414 -46.17728,-6.95898c-0.40147,-1.2368 0.25076,-1.13149 2.42568,-10.20766c2.1466,-8.95807 2.07617,-11.41819 3.90438,-12.13555c2.75194,-1.0798 4.59974,3.832 11.53217,5.51299c6.14328,1.48961 11.21238,-0.78653 12.75108,-1.47746z"/>
   </g>
   <g stroke="null" transform="matrix(0.582457 0 0 0.544741 174.88 206.01)">
    <polygon stroke="null" fill="#ffb6b6" points="50.93891906738287,274.1285572052002 42.781139373779354,228.6491413116455 19.22646331787115,233.6759204864502 21.336566925048885,273.4064197540283 39.54823303222662,289.0636463165283 50.93891906738287,274.1285572052002 "/>
    <path stroke="null" fill="#2f2e41" d="m-66.81435,119.31429c1.47458,1.19034 5.76537,5.55531 12.28414,6.16501c4.44882,0.41611 7.90855,-1.10642 9.04156,-1.56836c14.05646,-5.73092 51.83954,-3.90205 76.50003,11.36805c5.58456,3.45805 8.73193,6.51298 10.83152,10.41128c2.97713,5.52767 2.48188,10.2156 2.85934,22.24075c0.20649,6.57783 0.92671,13.13152 1.19087,19.70728c1.54645,38.49787 7.36313,45.38515 1.05061,53.10699c-7.00383,8.56748 -22.71196,10.54513 -28.57157,5.1097c-2.39968,-2.22596 -2.17313,-4.79123 -3.19252,-10.98742c-2.98899,-18.1676 -8.71359,-19.0708 -10.43682,-32.60197c-2.01189,-15.79789 4.6897,-23.21682 0.35612,-26.61997c-4.01874,-3.15588 -10.55463,2.61738 -25.86082,5.79169c-7.00377,1.45251 -11.26065,1.41036 -24.4082,1.54542c-51.19964,0.52605 -52.90697,1.84615 -61.23923,-0.99535c-3.64552,-1.24322 -29.51974,-10.06694 -30.83182,-24.85869c-2.05321,-23.14739 57.13999,-48.53996 70.42679,-37.81438l0,-0.00003z"/>
    <path stroke="null" fill="#2f2e41" d="m38.57685,274.76545c2.56373,0.45115 5.56141,0.97869 7.91065,-0.89211c1.58961,-1.26588 2.64486,-3.44073 2.53921,-5.51013c-0.1219,-2.38771 -1.74638,-3.79393 -1.48546,-4.02467c0.3973,-0.35135 4.4597,2.64827 7.9435,7.37882c0.65742,0.89268 3.60406,4.98347 5.94759,12.25702c1.87764,5.82758 0.91611,6.08788 2.2003,9.58486c3.94203,10.73442 14.1028,11.27815 14.75035,19.27556c0.24989,3.0865 -0.98973,6.3866 -3.2212,8.22088c-4.48123,3.68361 -12.15376,0.79097 -16.31454,-0.83789c-10.02065,-3.92285 -15.50185,-9.99165 -21.58014,-15.80566c-20.67117,-19.77252 -36.21605,-25.09006 -34.30173,-31.68848c0.36231,-1.24884 0.84286,-0.79544 7.73911,-7.08423c6.8065,-6.20697 8.12967,-8.28215 10.04525,-7.84912c2.88345,0.65183 1.65425,5.75372 6.44656,11.03747c4.24679,4.68226 9.71937,5.64536 11.38055,5.93768z"/>
   </g>
   <path stroke="null" fill="#2f2e41" d="m97.4579,184.96229c0.71118,-2.37834 -0.18173,-3.24502 0.72807,-4.31271c0,0 0.36637,-0.4298 3.64036,-1.58901c-0.96571,-5.24204 -0.2423,-6.12834 -0.2423,-6.12834c0.8335,-1.02193 2.5034,-1.2687 3.64036,-1.13524c2.40438,0.28272 2.83016,2.31569 4.36843,2.26994c2.12539,-0.06319 4.6748,-4.04198 3.88324,-7.49073c-0.64536,-2.81304 -3.42834,-4.90212 -4.12554,-4.53933c-0.69196,0.35898 -3.18196,-1.22567 -4.12613,-0.90808c-0.64478,0.21681 -3.68055,-0.07191 -4.36843,0.22716c-0.75195,0.32576 -2.90413,2.35655 -3.11032,2.10052c-1.42993,-1.77803 -1.39964,-2.39849 -2.22906,-2.78199c-1.4707,-0.67875 -3.06897,0.57634 -5.82515,1.81617c-5.6708,2.55102 -7.33139,1.02956 -9.9507,3.17802c-1.32334,1.08512 -2.03278,3.1595 -3.39806,7.26358c-1.90871,5.73939 -2.86336,8.60909 -1.94133,11.34913c0.94009,2.79452 2.32459,2.18605 4.36843,6.12834c2.27508,4.38898 1.49109,6.94 3.64036,7.94505c1.66175,0.77626 4.33173,0.28218 5.33997,-1.13524c1.72582,-2.42682 -2.73522,-5.70889 -1.21384,-9.53351c0.93426,-2.34729 3.81509,-4.1275 5.58227,-3.63179c1.99783,0.56054 2.14519,3.9107 3.39806,3.85895c1.0723,-0.04467 1.81727,-2.53631 1.94133,-2.95086z"/>
   <path stroke="null" fill="#e6e6e6" d="m83.62396,201.30506c3.73705,-3.91832 18.9584,0.13727 20.38717,6.35604c0.58712,2.55756 -1.58195,3.63724 -0.97096,6.58265c0.89349,4.30727 5.95271,4.01365 9.70781,8.39827c5.33181,6.22476 -0.16076,12.31006 5.82515,22.69881c1.27908,2.21982 2.3572,4.09046 4.61131,5.90172c5.1728,4.15474 9.98681,2.7297 12.62068,6.58211c1.96929,2.88114 1.16025,6.4323 0.97037,7.26358c-0.777,3.41117 -2.88375,4.2419 -4.36843,7.03696c-2.46962,4.64991 0.32676,8.06326 0.48519,13.61907c0.19862,6.9509 -3.75102,16.58627 -11.64973,19.74795c-8.87374,3.55171 -19.57639,-2.33095 -24.7556,-8.17166c-3.08994,-3.48525 -3.9875,-6.70031 -5.33938,-10.66821c-6.04241,-17.73513 -9.45561,-16.13087 -14.07683,-30.18955c-5.2823,-16.07095 -6.32083,-34.89938 0,-40.85721c0.83816,-0.78987 3.14352,-2.6153 4.61131,-5.90172c1.97569,-4.42275 0.2691,-6.64421 1.94191,-8.39882z"/>
   <path stroke="null" fill="#3f3d56" d="m202.30893,216.46139c0.91853,5.64188 -3.24196,10.93077 -9.27447,11.79037c-6.03251,0.85906 -11.68817,-3.03203 -12.6067,-8.67391c-0.91853,-5.64243 3.24196,-10.93132 9.27447,-11.79037c6.03251,-0.8596 11.68817,3.03203 12.6067,8.67391zm-20.72965,2.9525c0.82185,5.04811 5.88224,8.52955 11.27987,7.76038c5.39763,-0.76863 9.12011,-5.50079 8.29827,-10.54891c-0.82243,-5.04811 -5.88224,-8.52955 -11.27987,-7.76093c-5.39763,0.76863 -9.12011,5.50079 -8.29827,10.54945z"/>
   <path stroke="null" fill="#3f3d56" d="m185.70075,218.82666c0.47645,2.92254 3.40563,4.93808 6.53051,4.49302c3.12488,-0.44505 5.27997,-3.18456 4.80411,-6.10764c-0.47587,-2.92254 -3.40504,-4.93808 -6.52993,-4.49302c-3.12547,0.44505 -5.28056,3.1851 -4.80469,6.10764z"/>
   <path stroke="null" fill="#6c63ff" d="m235.53695,131.01876c1.37751,8.46146 9.85809,14.29618 18.9054,13.00787c9.04731,-1.28831 15.28659,-9.22029 13.9085,-17.68175c-1.37751,-8.46092 -9.85867,-14.29618 -18.9054,-13.00787c-9.04731,1.28886 -15.28659,9.22029 -13.9085,17.68175z"/>
   <path stroke="null" fill="#ffb6b6" d="m173.63049,215.41494c4.56413,-0.98653 8.8085,0.41618 9.47949,3.13335c0.67099,2.71662 -2.48534,5.7176 -7.05123,6.70413c-1.81843,0.41727 -3.71666,0.42163 -5.53684,0.01198l-19.39582,3.9521l-1.65127,-7.17696l19.17274,-4.36283c1.44391,-1.11508 3.15284,-1.8908 4.98292,-2.26176z" id="svg_20"/>
   <path stroke="null" fill="#e6e6e6" d="m80.99067,220.38353c0.11999,-0.5028 1.23947,-4.87053 5.40229,-6.86047c4.78197,-2.28628 10.0602,0.2484 11.91183,1.13742c4.27698,2.05367 4.18437,3.95918 7.97267,6.78312c7.08676,5.28344 16.19988,5.16741 21.23522,5.10368c1.74271,-0.02179 7.1252,-0.18848 13.87529,-2.2634c13.12858,-4.03599 21.51539,-9.0999 21.51539,-9.0999l3.4464,10.91988c0,0 -10.16621,10.50751 -22.35529,15.29578c-12.50303,4.91138 -48.16397,5.23551 -56.61134,4.83839c-0.72749,-0.03377 10.85292,1.01158 -0.48519,-11.70757c-2.58669,-2.90075 -7.32498,-8.21633 -5.90728,-14.14692z"/>
  </g>
 </g>
</svg>