<svg id="visual" viewBox="0 0 900 1100" width="900" height="1100" xmlns="http://www.w3.org/2000/svg" xmlns:xlink="http://www.w3.org/1999/xlink" version="1.1"><path d="M0 34L41 34L41 45L82 45L82 34L123 34L123 45L164 45L164 34L205 34L205 67L245 67L245 67L286 67L286 34L327 34L327 45L368 45L368 56L409 56L409 67L450 67L450 67L491 67L491 56L532 56L532 45L573 45L573 45L614 45L614 56L655 56L655 34L695 34L695 45L736 45L736 34L777 34L777 45L818 45L818 34L859 34L859 34L900 34L900 67L900 0L900 0L859 0L859 0L818 0L818 0L777 0L777 0L736 0L736 0L695 0L695 0L655 0L655 0L614 0L614 0L573 0L573 0L532 0L532 0L491 0L491 0L450 0L450 0L409 0L409 0L368 0L368 0L327 0L327 0L286 0L286 0L245 0L245 0L205 0L205 0L164 0L164 0L123 0L123 0L82 0L82 0L41 0L41 0L0 0Z" fill="#621e9a"></path><path d="M0 78L41 78L41 67L82 67L82 78L123 78L123 100L164 100L164 67L205 67L205 122L245 122L245 111L286 111L286 67L327 67L327 100L368 100L368 111L409 111L409 111L450 111L450 122L491 122L491 111L532 111L532 78L573 78L573 100L614 100L614 89L655 89L655 67L695 67L695 67L736 67L736 78L777 78L777 89L818 89L818 67L859 67L859 78L900 78L900 89L900 65L900 32L859 32L859 32L818 32L818 43L777 43L777 32L736 32L736 43L695 43L695 32L655 32L655 54L614 54L614 43L573 43L573 43L532 43L532 54L491 54L491 65L450 65L450 65L409 65L409 54L368 54L368 43L327 43L327 32L286 32L286 65L245 65L245 65L205 65L205 32L164 32L164 43L123 43L123 32L82 32L82 43L41 43L41 32L0 32Z" fill="#6b27a3"></path><path d="M0 199L41 199L41 155L82 155L82 166L123 166L123 188L164 188L164 188L205 188L205 232L245 232L245 199L286 199L286 122L327 122L327 166L368 166L368 232L409 232L409 188L450 188L450 221L491 221L491 177L532 177L532 177L573 177L573 188L614 188L614 166L655 166L655 155L695 155L695 188L736 188L736 188L777 188L777 210L818 210L818 155L859 155L859 177L900 177L900 155L900 87L900 76L859 76L859 65L818 65L818 87L777 87L777 76L736 76L736 65L695 65L695 65L655 65L655 87L614 87L614 98L573 98L573 76L532 76L532 109L491 109L491 120L450 120L450 109L409 109L409 109L368 109L368 98L327 98L327 65L286 65L286 109L245 109L245 120L205 120L205 65L164 65L164 98L123 98L123 76L82 76L82 65L41 65L41 76L0 76Z" fill="#7430ac"></path><path d="M0 320L41 320L41 276L82 276L82 309L123 309L123 287L164 287L164 320L205 320L205 364L245 364L245 320L286 320L286 232L327 232L327 309L368 309L368 353L409 353L409 254L450 254L450 342L491 342L491 254L532 254L532 254L573 254L573 276L614 276L614 232L655 232L655 210L695 210L695 320L736 320L736 265L777 265L777 287L818 287L818 232L859 232L859 298L900 298L900 265L900 153L900 175L859 175L859 153L818 153L818 208L777 208L777 186L736 186L736 186L695 186L695 153L655 153L655 164L614 164L614 186L573 186L573 175L532 175L532 175L491 175L491 219L450 219L450 186L409 186L409 230L368 230L368 164L327 164L327 120L286 120L286 197L245 197L245 230L205 230L205 186L164 186L164 186L123 186L123 164L82 164L82 153L41 153L41 197L0 197Z" fill="#7d39b4"></path><path d="M0 353L41 353L41 331L82 331L82 353L123 353L123 353L164 353L164 353L205 353L205 419L245 419L245 353L286 353L286 287L327 287L327 364L368 364L368 397L409 397L409 320L450 320L450 375L491 375L491 320L532 320L532 298L573 298L573 342L614 342L614 265L655 265L655 287L695 287L695 364L736 364L736 298L777 298L777 342L818 342L818 276L859 276L859 364L900 364L900 309L900 263L900 296L859 296L859 230L818 230L818 285L777 285L777 263L736 263L736 318L695 318L695 208L655 208L655 230L614 230L614 274L573 274L573 252L532 252L532 252L491 252L491 340L450 340L450 252L409 252L409 351L368 351L368 307L327 307L327 230L286 230L286 318L245 318L245 362L205 362L205 318L164 318L164 285L123 285L123 307L82 307L82 274L41 274L41 318L0 318Z" fill="#8641bd"></path><path d="M0 507L41 507L41 419L82 419L82 430L123 430L123 430L164 430L164 452L205 452L205 562L245 562L245 474L286 474L286 397L327 397L327 507L368 507L368 518L409 518L409 485L450 485L450 529L491 529L491 496L532 496L532 474L573 474L573 485L614 485L614 397L655 397L655 386L695 386L695 529L736 529L736 463L777 463L777 507L818 507L818 441L859 441L859 474L900 474L900 452L900 307L900 362L859 362L859 274L818 274L818 340L777 340L777 296L736 296L736 362L695 362L695 285L655 285L655 263L614 263L614 340L573 340L573 296L532 296L532 318L491 318L491 373L450 373L450 318L409 318L409 395L368 395L368 362L327 362L327 285L286 285L286 351L245 351L245 417L205 417L205 351L164 351L164 351L123 351L123 351L82 351L82 329L41 329L41 351L0 351Z" fill="#8f4ac6"></path><path d="M0 540L41 540L41 474L82 474L82 496L123 496L123 474L164 474L164 485L205 485L205 628L245 628L245 529L286 529L286 430L327 430L327 584L368 584L368 551L409 551L409 551L450 551L450 562L491 562L491 573L532 573L532 507L573 507L573 540L614 540L614 452L655 452L655 463L695 463L695 573L736 573L736 518L777 518L777 540L818 540L818 485L859 485L859 551L900 551L900 529L900 450L900 472L859 472L859 439L818 439L818 505L777 505L777 461L736 461L736 527L695 527L695 384L655 384L655 395L614 395L614 483L573 483L573 472L532 472L532 494L491 494L491 527L450 527L450 483L409 483L409 516L368 516L368 505L327 505L327 395L286 395L286 472L245 472L245 560L205 560L205 450L164 450L164 428L123 428L123 428L82 428L82 417L41 417L41 505L0 505Z" fill="#9952d0"></path><path d="M0 639L41 639L41 562L82 562L82 573L123 573L123 551L164 551L164 529L205 529L205 672L245 672L245 628L286 628L286 518L327 518L327 650L368 650L368 606L409 606L409 639L450 639L450 628L491 628L491 617L532 617L532 595L573 595L573 595L614 595L614 496L655 496L655 518L695 518L695 628L736 628L736 606L777 606L777 617L818 617L818 551L859 551L859 595L900 595L900 606L900 527L900 549L859 549L859 483L818 483L818 538L777 538L777 516L736 516L736 571L695 571L695 461L655 461L655 450L614 450L614 538L573 538L573 505L532 505L532 571L491 571L491 560L450 560L450 549L409 549L409 549L368 549L368 582L327 582L327 428L286 428L286 527L245 527L245 626L205 626L205 483L164 483L164 472L123 472L123 494L82 494L82 472L41 472L41 538L0 538Z" fill="#a25bd9"></path><path d="M0 815L41 815L41 760L82 760L82 881L123 881L123 804L164 804L164 694L205 694L205 793L245 793L245 804L286 804L286 694L327 694L327 881L368 881L368 837L409 837L409 771L450 771L450 782L491 782L491 848L532 848L532 826L573 826L573 771L614 771L614 716L655 716L655 683L695 683L695 782L736 782L736 881L777 881L777 859L818 859L818 848L859 848L859 771L900 771L900 837L900 604L900 593L859 593L859 549L818 549L818 615L777 615L777 604L736 604L736 626L695 626L695 516L655 516L655 494L614 494L614 593L573 593L573 593L532 593L532 615L491 615L491 626L450 626L450 637L409 637L409 604L368 604L368 648L327 648L327 516L286 516L286 626L245 626L245 670L205 670L205 527L164 527L164 549L123 549L123 571L82 571L82 560L41 560L41 637L0 637Z" fill="#ab63e2"></path><path d="M0 1024L41 1024L41 980L82 980L82 1035L123 1035L123 1013L164 1013L164 991L205 991L205 1035L245 1035L245 1013L286 1013L286 1002L327 1002L327 1035L368 1035L368 1002L409 1002L409 1024L450 1024L450 1013L491 1013L491 1035L532 1035L532 969L573 969L573 991L614 991L614 1035L655 1035L655 1013L695 1013L695 980L736 980L736 1002L777 1002L777 1013L818 1013L818 1013L859 1013L859 980L900 980L900 980L900 835L900 769L859 769L859 846L818 846L818 857L777 857L777 879L736 879L736 780L695 780L695 681L655 681L655 714L614 714L614 769L573 769L573 824L532 824L532 846L491 846L491 780L450 780L450 769L409 769L409 835L368 835L368 879L327 879L327 692L286 692L286 802L245 802L245 791L205 791L205 692L164 692L164 802L123 802L123 879L82 879L82 758L41 758L41 813L0 813Z" fill="#b46cec"></path><path d="M0 1079L41 1079L41 1046L82 1046L82 1079L123 1079L123 1079L164 1079L164 1046L205 1046L205 1068L245 1068L245 1068L286 1068L286 1068L327 1068L327 1068L368 1068L368 1057L409 1057L409 1057L450 1057L450 1046L491 1046L491 1068L532 1068L532 1046L573 1046L573 1079L614 1079L614 1079L655 1079L655 1079L695 1079L695 1057L736 1057L736 1057L777 1057L777 1068L818 1068L818 1079L859 1079L859 1057L900 1057L900 1046L900 978L900 978L859 978L859 1011L818 1011L818 1011L777 1011L777 1000L736 1000L736 978L695 978L695 1011L655 1011L655 1033L614 1033L614 989L573 989L573 967L532 967L532 1033L491 1033L491 1011L450 1011L450 1022L409 1022L409 1000L368 1000L368 1033L327 1033L327 1000L286 1000L286 1011L245 1011L245 1033L205 1033L205 989L164 989L164 1011L123 1011L123 1033L82 1033L82 978L41 978L41 1022L0 1022Z" fill="#be74f5"></path><path d="M0 1101L41 1101L41 1101L82 1101L82 1101L123 1101L123 1101L164 1101L164 1101L205 1101L205 1101L245 1101L245 1101L286 1101L286 1101L327 1101L327 1101L368 1101L368 1101L409 1101L409 1101L450 1101L450 1101L491 1101L491 1101L532 1101L532 1101L573 1101L573 1101L614 1101L614 1101L655 1101L655 1101L695 1101L695 1101L736 1101L736 1101L777 1101L777 1101L818 1101L818 1101L859 1101L859 1101L900 1101L900 1101L900 1044L900 1055L859 1055L859 1077L818 1077L818 1066L777 1066L777 1055L736 1055L736 1055L695 1055L695 1077L655 1077L655 1077L614 1077L614 1077L573 1077L573 1044L532 1044L532 1066L491 1066L491 1044L450 1044L450 1055L409 1055L409 1055L368 1055L368 1066L327 1066L327 1066L286 1066L286 1066L245 1066L245 1066L205 1066L205 1044L164 1044L164 1077L123 1077L123 1077L82 1077L82 1044L41 1044L41 1077L0 1077Z" fill="#c77dff"></path></svg>