<?xml version="1.0" encoding="utf-8"?>
<svg width="524.92557" height="493.29296" viewBox="0 0 524.92557 493.29296" xmlns="http://www.w3.org/2000/svg">
  <g transform="matrix(1, 0, 0, 1, 0, 14)">
    <path d="M407.32079,104.89971l8.22992,3.89856c-3.37555-4.71082-6.28418-12.06805-7.84137-17.92249-2.63654,5.45343-6.88672,12.1261-11.09375,16.11194l8.69812-2.23767c-5.35974,26.26794-25.5191,45.12573-48.60437,45.12573l-.32679,.9488c24.11316,0,45.46577-18.59639,50.93824-45.92488Z" fill="#3f3d56"/>
    <path d="M382.44158,64.87575h52c2.20557,0,4,1.79443,4,4,0,2.20557-1.79443,4-4,4h-52c-2.20557,0-4-1.79443-4-4,0-2.20557,1.79443-4,4-4Z" fill="#3f3d56"/>
  </g>
  <path id="uuid-0273e7bd-2c5c-4a7f-b62c-18eea742226e-168" d="M 264.923 168.721 C 271.123 163.598 278.792 162.645 282.052 166.591 C 285.311 170.537 282.927 177.888 276.724 183.012 C 274.274 185.093 271.362 186.557 268.231 187.281 L 241.686 208.656 L 231.921 195.986 L 259.126 176.259 C 260.428 173.32 262.416 170.735 264.923 168.721 Z" fill="#ffb6b6"/>
  <path d="M 111.501 216.949 C 111.488 216.003 111.497 207.758 117.601 202.546 C 124.613 196.559 134.508 198.983 137.979 199.832 C 145.996 201.796 146.653 205.235 154.182 208.768 C 168.267 215.379 150.619 211.996 159 209.876 C 161.901 209.142 203.638 206.247 214.027 199.853 C 234.233 187.417 248 179.876 248 179.876 L 257 197.876 C 257 197.876 243.986 215.971 225.67 229.377 C 206.882 243.128 197.488 250.004 183.211 252.66 C 181.982 252.889 151.745 258.052 127.392 239.857 C 121.838 235.707 111.66 228.103 111.501 216.949 Z" fill="#e6e6e6"/>
  <g transform="matrix(1, 0, 0, 1, 0, 14)">
    <circle cx="284.19977" cy="158.33361" r="25.13289" fill="#6c63ff" opacity=".2"/>
    <circle cx="308.3457" cy="169.52001" r="25.13289" fill="#fff"/>
    <circle cx="308.3457" cy="169.52001" r="25.13289" fill="#6c63ff" opacity=".5"/>
    <circle cx="333.83306" cy="181.32788" r="25.13289" fill="#fff"/>
    <circle cx="333.83306" cy="181.32788" r="25.13289" fill="#6c63ff" opacity=".8"/>
    <circle cx="356.63755" cy="191.89281" r="25.13289" fill="#6c63ff"/>
  </g>
  <g transform="matrix(1, 0, 0, 1, 0, 27)">
    <path d="M166.20778,211.49749c-1.33478-2.25069-7.10919,.15916-8.1708-1.88344-1.05785-2.03522,4.30724-5.13625,7.37242-12.2203,.55281-1.27751,4.03609-9.32803,1.45742-11.81214-4.88783-4.7086-27.25471,14.7226-35.08209,8.36378-1.71786-1.39548-2.91794-4.18131-8.11695-8.70435-2.06832-1.79935-3.31896-2.61176-4.52936-2.3095-1.71747,.42886-1.85353,2.72746-3.69518,7.24698-2.76191,6.77793-4.39543,6.36865-6.00464,11.77634-1.19458,4.01438-.9217,6.34829-2.3274,6.80297-1.98919,.64346-3.82014-3.61452-6.34111-3.23327-2.57249,.38911-4.12776,5.3468-4.619,9.05872-.92189,6.9657,1.63622,11.56213,3.05409,16.39529,1.54079,5.25243,2.45525,13.24023-1.10301,24.5481l-35.21877,99.22915c7.77523-20.36152,30.2882-76.17789,39.74814-96.91965,2.73093-5.9877,5.74623-12.06109,11.93758-14.45806,5.96083-2.30781,14.14726-.92995,24.58399-3.44425,1.21889-.29358,4.60134-1.1542,5.02707-3.14368,.352-1.64476-1.63758-2.56284-1.33189-4.1033,.41-2.06629,4.32248-2.09167,9.13042-4.47557,3.39027-1.68105,5.50239-3.68018,7.31867-5.39939,.5476-.51831,8.68742-8.31833,6.91051-11.31443h-.0001Z" style="fill: rgb(199, 125, 255);"/>
    <path d="M27.64662,263.73586c-1.4898,.00569-1.97308,3.53515-3.28191,3.46683-1.30415-.06803-1.27814-3.59599-3.87061-7.14441-.46751-.63989-3.41371-4.67241-5.377-4.12347-3.72128,1.04038-.63791,17.62471-6.01732,19.63175-1.18054,.44049-2.89415,.2257-6.61413,1.47238-1.47991,.49597-2.2395,.87538-2.44039,1.55667-.28504,.96666,.80383,1.69673,2.49067,3.90457,2.52975,3.31119,1.85753,3.99489,4.04733,6.34497,1.62561,1.74459,2.84986,2.28408,2.66739,3.10518-.25812,1.16196-2.87625,.83206-3.41651,2.17933-.55126,1.37487,1.43325,3.56863,3.11333,4.88074,3.15285,2.4623,6.14687,2.53298,8.92812,3.23163,3.02249,.75925,7.20684,2.61519,11.73012,7.62431l38.54058,45.91638c-7.75019-9.69109-28.64951-36.8454-36.10019-47.47309-2.15087-3.06798-4.26169-6.30029-3.65171-10.03069,.58721-3.5915,3.62552-7.21185,5.40281-13.05974,.2076-.68297,.76113-2.5914-.09244-3.37439-.7057-.64732-1.73035,.06431-2.39823-.53023-.89584-.79746,.22058-2.72505,.43774-5.77262,.15313-2.14899-.21865-3.76244-.53838-5.14995-.0964-.4183-1.57611-6.66392-3.55927-6.6563v.00014Z" style="fill: rgb(199, 125, 255);"/>
    <path d="M57.36759,270.40755l-.89757-8.01245,.41009-.60742c1.89767-2.8088,2.86491-5.55184,2.87649-8.1556,.00193-.41395-.01742-.82795-.03676-1.24963-.07739-1.67135-.17407-3.74893,.9092-6.17084,.60742-1.35022,2.3136-4.47629,4.87866-4.0894,.6906,.09673,1.21291,.41395,1.60945,.78535,.05804-.09283,.11801-.1857,.18184-.28629,.79891-1.2187,1.43147-1.74097,2.04082-2.24393,.46813-.38689,.95175-.78535,1.71004-1.72939,.33271-.41395,.59193-.77763,.81054-1.08327,.66353-.92464,1.53013-2.02731,3.05833-2.00796,1.63265,.07739,2.48767,1.42761,3.05447,2.32132,1.01172,1.59396,1.47016,2.74304,1.77387,3.50519,.11029,.27857,.23602,.59193,.29985,.68867,.52617,.77377,4.80326,.05027,6.41458-.21281,3.61934-.60356,6.7512-1.12583,8.0415,1.1568,.92469,1.63265,.23795,3.79148-2.10277,6.58871-.72929,.87051-1.50499,1.53206-2.19366,2.05052,.57066,.34047,1.0813,.86274,1.28837,1.68298h0c.48748,1.94215-1.18194,3.88822-4.95991,5.79173-.9382,.47585-2.20138,1.11039-3.97139,1.41603-.83374,.14315-1.58431,.17798-2.22652,.19733-.01356,.3714-.10059,.77377-.32692,1.18773-.66353,1.2187-2.04468,1.79901-4.12617,1.65972-2.2904-.11994-4.17644-.5571-5.84007-.94013-1.45274-.33271-2.70435-.61514-3.68703-.54938-1.82221,.14701-3.22666,1.60559-4.87476,3.49747l-4.11454,4.809h-.00005Z" style="fill: rgb(199, 125, 255);"/>
    <path d="M61.53129,222.70138l-7.52275,2.90057-.69156-.24263c-3.19829-1.12317-6.09693-1.36301-8.61848-.71376-.40093,.10315-.79645,.22685-1.19945,.35254-1.59705,.49877-3.58219,1.11931-6.19965,.68577-1.46017-.24504-4.91673-1.10252-5.19313-3.68182-.08158-.69253,.09278-1.27824,.35147-1.75602-.10455-.03257-.20958-.06701-.32306-.10325-1.38148-.4637-2.04714-.94307-2.68823-1.40493-.49298-.35471-1.00111-.72143-2.10658-1.21547-.48483-.21682-.90235-.37531-1.25344-.50924-1.06272-.40725-2.34911-.96589-2.718-2.44903-.33927-1.59888,.74994-2.76842,1.47064-3.5434,1.28523-1.38293,2.28041-2.11787,2.94061-2.60496,.24147-.17731,.51271-.37844,.5901-.46471,.615-.70522-1.16968-4.6589-1.83288-6.15082-1.50186-3.34786-2.80147-6.24481-.92073-8.07189,1.34472-1.30854,3.60713-1.19188,6.9066,.36276,1.02702,.48463,1.86371,1.06716,2.53988,1.60182,.18459-.63835,.56024-1.26482,1.30115-1.67308h0c1.75501-.96415,4.06084,.15704,6.86038,3.32861,.69827,.7868,1.63246,1.84774,2.37705,3.48232,.34993,.77016,.57399,1.48734,.75563,2.10368,.36272-.0811,.77397-.09895,1.23182,.01496,1.34713,.33271,2.25884,1.52149,2.65205,3.57023,.46495,2.24591,.52048,4.18117,.57196,5.88754,.04665,1.48965,.0909,2.77194,.40382,3.7058,.60443,1.72534,2.3715,2.71385,4.61958,3.8282l5.69538,2.76017-.00019,.00005Z" style="fill: rgb(199, 125, 255);"/>
    <path d="M57.36759,199.09645l-.89757-8.01245,.41009-.60742c1.89767-2.8088,2.86491-5.55184,2.87649-8.1556,.00193-.41395-.01742-.82795-.03676-1.24963-.07739-1.67135-.17407-3.74893,.9092-6.17084,.60742-1.35022,2.3136-4.47629,4.87866-4.0894,.6906,.09673,1.21291,.41395,1.60945,.78535,.05804-.09283,.11801-.1857,.18184-.28629,.79891-1.2187,1.43147-1.74097,2.04082-2.24393,.46813-.38689,.95175-.78535,1.71004-1.72939,.33271-.41395,.59193-.77763,.81054-1.08327,.66353-.92464,1.53013-2.02731,3.05833-2.00796,1.63265,.07739,2.48767,1.42761,3.05447,2.32132,1.01172,1.59396,1.47016,2.74304,1.77387,3.50519,.11029,.27857,.23602,.59193,.29985,.68867,.52617,.77377,4.80326,.05027,6.41458-.21281,3.61934-.60356,6.7512-1.12583,8.0415,1.1568,.92469,1.63265,.23795,3.79148-2.10277,6.58871-.72929,.87051-1.50499,1.53206-2.19366,2.05052,.57066,.34047,1.0813,.86274,1.28837,1.68298h0c.48748,1.94215-1.18194,3.88822-4.95991,5.79173-.9382,.47585-2.20138,1.11039-3.97139,1.41603-.83374,.14315-1.58431,.17798-2.22652,.19733-.01356,.3714-.10059,.77377-.32692,1.18773-.66353,1.2187-2.04468,1.79901-4.12617,1.65972-2.2904-.11994-4.17644-.5571-5.84007-.94013-1.45274-.33271-2.70435-.61514-3.68703-.54938-1.82221,.14701-3.22666,1.60559-4.87476,3.49747l-4.11454,4.809h-.00005Z" style="fill: rgb(199, 125, 255);"/>
    <path d="M65.56574,354.6252l-1.67912-1.05235-.40623-1.93829,.40623,1.93829-1.95764,.22439c-.03097-.18184-.13736-.5997-.29787-1.25353-.8763-3.58258-3.54774-14.48508-5.77624-31.65511-1.55532-11.98578-2.43547-24.30812-2.61731-36.63051-.18184-12.34169,.40237-21.68506,.87051-29.1945,.35398-5.66402,.78347-11.05723,1.20514-16.3112,1.12197-14.03629,2.1801-27.2949,1.39277-41.9734-.17407-3.27694-.53973-10.09775-4.52463-17.35578-2.31167-4.20934-5.49573-7.94665-9.4652-11.10364l2.46833-3.10282c4.38149,3.4897,7.90409,7.62943,10.47113,12.30304,4.41825,8.04724,4.81676,15.47939,5.00825,19.05034,.80084,14.93773-.26888,28.32404-1.40247,42.49571-.41786,5.23458-.8473,10.60458-1.19935,16.24539-.46427,7.43987-1.04265,16.7019-.86274,28.885,.17798,12.17534,1.04844,24.34681,2.58248,36.18172,2.20138,16.95341,4.83418,27.69342,5.69885,31.22181,.46041,1.88416,.5571,2.27877,.08511,3.02548v-.00005Z" style="fill: rgb(199, 125, 255);"/>
    <path d="M35.45041,174.61426c-.16249,0-.32692-.00386-.49327-.01549-3.37367-.18184-6.49776-2.20138-9.28722-6.00063-1.30767-1.78743-1.97699-3.82632-3.31177-7.89251-.20698-.62677-1.21291-3.80697-1.82419-8.18267-.40044-2.85912-.35012-4.05457,.21667-5.11078,.6287-1.17615,1.64621-1.99633,2.79139-2.54957-.05027-.37917-.0097-.76991,.15477-1.16843,.67511-1.652,2.47026-1.43533,3.44136-1.33087,.49134,.0619,1.10455,.14315,1.76615,.10831,1.04072-.05027,1.5998-.35982,2.44705-.82409,.81054-.44493,1.81835-.99817,3.3137-1.30381,2.94809-.61514,5.41835,.22053,6.23274,.4952,4.28475,1.42761,6.39717,4.75872,8.84229,8.61597,.48748,.77377,2.16076,3.5903,3.26531,7.45145,.79698,2.7856,.68481,4.02364,.44493,4.94442-.48748,1.89188-1.63844,2.97516-4.5614,5.36614-3.05254,2.50316-4.5846,3.7567-5.90004,4.51884-3.06219,1.76808-4.98505,2.87842-7.53848,2.87842v.0001Z" style="fill: rgb(199, 125, 255);"/>
  </g>
  <circle cx="139.42" cy="139.818" r="31.352" fill="#ffb6b6"/>
  <g transform="matrix(1, 0, 0, 1, 0, 22)">
    <polygon points="384.95929 336.45544 352.6707 303.40431 336.00309 320.79057 360.05926 352.48074 383.92063 355.2098 384.95929 336.45544" fill="#ffb6b6"/>
    <path d="M200.59018,274.47704c1.88857,.15692,7.89007,1.35928,13.62641-1.79676,3.91484-2.15387,5.92265-5.35646,6.60076-6.37492,8.41291-12.63529,40.70354-32.3386,69.68363-33.55112,6.56277-.27457,10.88253,.48586,14.80888,2.53252,5.56743,2.90211,7.79007,7.05924,14.85498,16.79751,3.86456,5.32688,8.14065,10.34531,12.05176,15.6381,22.89761,30.98673,31.57809,33.41933,30.69089,43.35349-.98437,11.02209-12.87155,21.47919-20.77229,20.27203-3.23557-.49436-4.48861-2.74421-8.8115-7.29884-12.67503-13.35438-17.91904-10.88716-26.94319-21.11588-10.53585-11.94223-9.15661-21.84423-14.65344-22.2267-5.09746-.35467-7.26369,8.09257-18.14632,19.31415-4.97964,5.13476-8.52567,7.49028-19.32879,14.98488-42.06982,29.18579-42.74126,31.23684-51.23141,33.56451-3.71461,1.01839-30.07911,8.24653-39.47092-3.25614-14.69706-18.00039,20.02356-72.2507,37.04055-70.83684Z" fill="#2f2e41"/>
    <path d="M375.0879,343.92421c2.3747-1.06633,5.15137-2.31312,6.04472-5.1803,.60449-1.94008,.25639-4.33223-.99307-5.98523-1.44165-1.90726-3.57548-2.15863-3.48915-2.49608,.13145-.51383,5.17729-.31297,10.71634,1.64505,1.04526,.36949,5.78059,2.09976,11.80411,6.8023,4.82606,3.76768,4.17661,4.52299,7.2029,6.69545,9.28962,6.66861,18.00248,1.41287,23.02914,7.66672,1.93996,2.41361,2.76736,5.84038,1.95095,8.6112-1.63952,5.56439-9.61248,7.47928-13.96999,8.46791-10.49443,2.381-18.43771,.43726-26.73198-.96036-28.2074-4.75317-44.05602-.42414-46.17728-6.95898-.40147-1.2368,.25076-1.13149,2.42568-10.20766,2.1466-8.95807,2.07617-11.41819,3.90438-12.13555,2.75194-1.0798,4.59974,3.832,11.53217,5.51299,6.14328,1.48961,11.21238-.78653,12.75108-1.47746Z" fill="#2f2e41"/>
  </g>
  <g transform="matrix(1, 0, 0, 1, 0, 14)">
    <polygon points="327.55546 444.57835 319.39767 399.0989 295.843 404.12569 297.95309 443.85621 316.16474 459.51343 327.55546 444.57835" fill="#ffb6b6"/>
    <path d="M209.80218,289.76408c1.47458,1.19034,5.76537,5.55531,12.28414,6.16501,4.44882,.41611,7.90855-1.10642,9.04156-1.56836,14.05646-5.73092,51.83954-3.90205,76.50003,11.36805,5.58456,3.45805,8.73193,6.51298,10.83152,10.41128,2.97713,5.52767,2.48188,10.2156,2.85934,22.24075,.20649,6.57783,.92671,13.13152,1.19087,19.70728,1.54645,38.49787,7.36313,45.38515,1.05061,53.10699-7.00383,8.56748-22.71196,10.54513-28.57157,5.1097-2.39968-2.22596-2.17313-4.79123-3.19252-10.98742-2.98899-18.1676-8.71359-19.0708-10.43682-32.60197-2.01189-15.79789,4.6897-23.21682,.35612-26.61997-4.01874-3.15588-10.55463,2.61738-25.86082,5.79169-7.00377,1.45251-11.26065,1.41036-24.4082,1.54542-51.19964,.52605-52.90697,1.84615-61.23923-.99535-3.64552-1.24322-29.51974-10.06694-30.83182-24.85869-2.05321-23.14739,57.13999-48.53996,70.42679-37.81438Z" fill="#2f2e41"/>
    <path d="M315.19338,445.21524c2.56373,.45115,5.56141,.97869,7.91065-.89211,1.58961-1.26588,2.64486-3.44073,2.53921-5.51013-.1219-2.38771-1.74638-3.79393-1.48546-4.02467,.3973-.35135,4.4597,2.64827,7.9435,7.37882,.65742,.89268,3.60406,4.98347,5.94759,12.25702,1.87764,5.82758,.91611,6.08788,2.2003,9.58486,3.94203,10.73442,14.1028,11.27815,14.75035,19.27556,.24989,3.0865-.98973,6.3866-3.2212,8.22088-4.48123,3.68361-12.15376,.79097-16.31454-.83789-10.02065-3.92285-15.50185-9.99165-21.58014-15.80566-20.67117-19.77252-36.21605-25.09006-34.30173-31.68848,.36231-1.24884,.84286-.79544,7.73911-7.08423,6.8065-6.20697,8.12967-8.28215,10.04525-7.84912,2.88345,.65183,1.65425,5.75372,6.44656,11.03747,4.24679,4.68226,9.71937,5.64536,11.38055,5.93768Z" fill="#2f2e41"/>
  </g>
  <path d="M 143.694 145.812 C 144.915 141.446 143.382 139.855 144.944 137.895 C 144.944 137.895 145.573 137.106 151.194 134.978 C 149.536 125.355 150.778 123.728 150.778 123.728 C 152.209 121.852 155.076 121.399 157.028 121.644 C 161.156 122.163 161.887 125.895 164.528 125.811 C 168.177 125.695 172.554 118.391 171.195 112.06 C 170.087 106.896 165.309 103.061 164.112 103.727 C 162.924 104.386 158.649 101.477 157.028 102.06 C 155.921 102.458 150.709 101.928 149.528 102.477 C 148.237 103.075 144.542 106.803 144.188 106.333 C 141.733 103.069 141.785 101.93 140.361 101.226 C 137.836 99.98 135.092 102.284 130.36 104.56 C 120.624 109.243 117.773 106.45 113.276 110.394 C 111.004 112.386 109.786 116.194 107.442 123.728 C 104.165 134.264 102.526 139.532 104.109 144.562 C 105.723 149.692 108.1 148.575 111.609 155.812 C 115.515 163.869 114.169 168.552 117.859 170.397 C 120.712 171.822 125.296 170.915 127.027 168.313 C 129.99 163.858 122.331 157.833 124.943 150.812 C 126.547 146.503 131.493 143.235 134.527 144.145 C 137.957 145.174 138.21 151.324 140.361 151.229 C 142.202 151.147 143.481 146.573 143.694 145.812 Z" fill="#2f2e41"/>
  <path d="M 119.943 175.813 C 126.359 168.62 152.492 176.065 154.945 187.481 C 155.953 192.176 152.229 194.158 153.278 199.565 C 154.812 207.472 163.498 206.933 169.945 214.982 C 179.099 226.409 169.669 237.58 179.946 256.651 C 182.142 260.726 183.993 264.16 187.863 267.485 C 196.744 275.112 205.009 272.496 209.531 279.568 C 212.912 284.857 211.523 291.376 211.197 292.902 C 209.863 299.164 206.246 300.689 203.697 305.82 C 199.457 314.356 204.258 320.622 204.53 330.821 C 204.871 343.581 198.09 361.269 184.529 367.073 C 169.294 373.593 150.919 362.794 142.027 352.072 C 136.722 345.674 135.181 339.772 132.86 332.488 C 122.486 299.931 116.626 302.876 108.692 277.068 C 99.623 247.566 97.84 213.002 108.692 202.065 C 110.131 200.615 114.089 197.264 116.609 191.231 C 120.001 183.112 117.071 179.034 119.943 175.813 Z" fill="#e6e6e6"/>
  <path d="M 323.709 203.636 C 325.286 213.993 318.143 223.702 307.786 225.28 C 297.429 226.857 287.719 219.714 286.142 209.357 C 284.565 198.999 291.708 189.29 302.065 187.713 C 312.422 186.135 322.132 193.279 323.709 203.636 Z M 288.119 209.056 C 289.53 218.323 298.218 224.714 307.485 223.302 C 316.752 221.891 323.143 213.204 321.732 203.937 C 320.32 194.67 311.633 188.279 302.366 189.69 C 293.099 191.101 286.708 199.788 288.119 209.056 Z" fill="#3f3d56"/>
  <path d="M 295.195 207.978 C 296.013 213.343 301.042 217.043 306.407 216.226 C 311.772 215.409 315.472 210.38 314.655 205.014 C 313.838 199.649 308.809 195.949 303.444 196.766 C 298.078 197.583 294.378 202.613 295.195 207.978 Z" fill="#3f3d56"/>
  <path d="M 380.757 46.786 C 383.122 62.319 397.682 73.03 413.215 70.665 C 428.748 68.3 439.46 53.739 437.094 38.206 C 434.729 22.674 420.168 11.962 404.636 14.327 C 389.103 16.693 378.391 31.253 380.757 46.786 Z" fill="#6c63ff"/>
  <path id="uuid-d43be532-fa37-4a43-8eed-58df037ae9c1-169" d="M 274.472 201.715 C 282.308 199.904 289.595 202.479 290.747 207.467 C 291.899 212.454 286.48 217.963 278.641 219.774 C 275.519 220.54 272.26 220.548 269.135 219.796 L 235.835 227.051 L 233 213.876 L 265.917 205.867 C 268.396 203.82 271.33 202.396 274.472 201.715 Z" fill="#ffb6b6"/>
  <path d="M 115.422 210.836 C 115.628 209.913 117.55 201.895 124.697 198.242 C 132.907 194.045 141.969 198.698 145.148 200.33 C 152.491 204.1 152.332 207.598 158.836 212.782 C 171.003 222.481 186.649 222.268 195.294 222.151 C 198.286 222.111 207.527 221.805 219.116 217.996 C 241.656 210.587 256.055 201.291 256.055 201.291 L 261.972 221.337 C 261.972 221.337 244.518 240.626 223.591 249.416 C 202.125 258.432 140.9 259.027 126.397 258.298 C 125.148 258.236 145.03 260.155 125.564 236.806 C 121.123 231.481 112.988 221.723 115.422 210.836 Z" fill="#e6e6e6"/>
</svg>