<?xml version="1.0" standalone="no"?>
<!DOCTYPE svg PUBLIC "-//W3C//DTD SVG 20010904//EN"
 "http://www.w3.org/TR/2001/REC-SVG-20010904/DTD/svg10.dtd">
<svg version="1.0" xmlns="http://www.w3.org/2000/svg"
 width="1280.000000pt" height="857.000000pt" viewBox="0 0 1280.000000 857.000000"
 preserveAspectRatio="xMidYMid meet">
<metadata>
Created by potrace 1.16, written by Peter Selinger 2001-2019
</metadata>
<g transform="translate(0.000000,857.000000) scale(0.100000,-0.100000)"
fill="#000000" stroke="none">
<path d="M1901 8557 c92 -26 159 -89 174 -162 6 -25 3 -23 -15 13 -70 134
-266 164 -374 56 -65 -65 -86 -184 -47 -270 31 -69 126 -134 196 -134 10 0 15
-5 12 -12 -3 -7 -19 -44 -35 -83 -30 -70 -187 -673 -178 -682 3 -3 15 2 28 11
31 22 33 21 56 -18 13 -22 30 -35 50 -39 16 -3 41 -9 56 -13 22 -5 28 -1 43
30 17 37 33 47 33 22 0 -7 3 -26 6 -42 4 -24 -5 -43 -54 -112 -87 -120 -151
-290 -186 -497 -22 -124 -20 -345 5 -600 12 -115 23 -246 25 -290 5 -110 52
-568 69 -689 16 -107 32 -142 69 -152 l24 -6 -19 -61 c-56 -180 -75 -462 -44
-640 8 -47 33 -143 56 -214 22 -70 54 -183 70 -250 l30 -122 -144 -253 c-178
-311 -353 -632 -436 -798 -35 -69 -94 -186 -131 -260 -139 -275 -230 -519
-230 -614 l0 -56 73 -47 c144 -94 381 -223 466 -253 166 -61 243 -63 281 -11
40 57 189 435 326 825 21 60 39 105 41 100 1 -5 18 -97 38 -204 82 -450 176
-805 241 -915 46 -79 46 -79 303 -79 124 1 270 7 324 13 103 13 206 43 218 63
5 7 6 31 3 53 -2 22 -13 132 -25 245 -16 167 -88 821 -205 1880 -7 69 -14 132
-14 141 0 11 -15 20 -45 28 -56 14 -106 65 -150 151 -35 69 -91 234 -101 297
l-6 38 129 62 c70 34 138 65 151 68 12 4 22 11 22 16 0 9 -29 55 -66 106 -8
12 -16 28 -18 35 -1 7 -20 48 -44 90 -37 68 -42 84 -42 143 0 53 4 69 21 86
17 17 20 29 16 62 -4 31 -1 47 14 65 27 35 24 65 -20 220 -116 408 -137 663
-75 912 21 85 25 119 21 180 -6 77 -36 181 -61 209 -7 9 -16 28 -20 42 -8 36
-75 123 -196 254 -109 119 -176 217 -210 307 -22 59 -69 116 -244 295 -44 45
-78 84 -75 87 2 2 81 -4 174 -14 94 -11 257 -28 364 -40 107 -11 201 -20 209
-18 8 2 -5 17 -34 37 -27 19 -92 78 -145 132 -91 93 -139 163 -180 264 -12 30
-24 41 -47 47 -42 11 -62 43 -62 99 0 104 87 135 131 47 l14 -26 95 55 c52 31
134 75 181 99 100 51 100 52 88 179 -14 140 -83 244 -188 280 -56 19 -187 19
-266 0 -33 -8 -89 -14 -125 -15 -36 0 -89 -6 -118 -14 l-52 -13 0 57 c0 75
-38 150 -98 193 -34 25 -54 31 -105 34 l-62 3 46 -13z"/>
<path d="M5334 8516 c-19 -14 -19 -49 -22 -2159 -2 -2033 -1 -2146 15 -2166
l18 -22 3059 1 c2240 0 3063 3 3073 11 11 10 13 371 13 2165 l0 2153 -22 15
c-20 14 -328 16 -3068 16 -2615 0 -3049 -2 -3066 -14z"/>
<path d="M469 853 c-122 -125 -143 -153 -158 -211 -17 -62 -5 -109 42 -159 39
-43 250 -184 422 -282 l89 -51 -432 0 c-425 0 -432 0 -432 -20 0 -20 7 -20
469 -20 l469 0 82 -35 c141 -60 211 -78 300 -74 89 5 125 23 149 77 l15 32
773 0 773 0 28 -30 c34 -38 68 -44 312 -61 376 -25 840 13 936 76 21 13 503
15 4259 15 4228 0 4235 0 4235 20 0 20 -7 20 -4224 20 l-4224 0 -12 31 c-26
63 -173 147 -372 214 -59 20 -137 38 -173 42 l-65 6 0 -76 c0 -42 4 -87 10
-101 l9 -25 -42 18 c-23 10 -151 66 -285 125 -133 58 -258 113 -278 121 -34
14 -35 14 -53 -16 -38 -62 -72 -188 -72 -265 l0 -74 -783 0 c-683 0 -785 2
-796 15 -20 24 -110 71 -191 100 l-76 27 -27 81 c-30 90 -61 147 -80 147 -13
0 -37 -68 -53 -149 l-8 -44 -214 316 c-117 174 -214 317 -215 317 -1 0 -49
-48 -107 -107z"/>
</g>
</svg>
