<svg id="visual" viewBox="0 0 900 150" width="900" height="150" xmlns="http://www.w3.org/2000/svg" xmlns:xlink="http://www.w3.org/1999/xlink" version="1.1"><rect x="0" y="0" width="900" height="150" fill="#001220"></rect><path d="M0 83L10 86.3C20 89.7 40 96.3 60 96.8C80 97.3 100 91.7 120 87.7C140 83.7 160 81.3 180 83.2C200 85 220 91 240 87.7C260 84.3 280 71.7 300 68.2C320 64.7 340 70.3 360 75C380 79.7 400 83.3 420 82C440 80.7 460 74.3 480 76.3C500 78.3 520 88.7 540 92C560 95.3 580 91.7 600 86.7C620 81.7 640 75.3 660 71.5C680 67.7 700 66.3 720 72.7C740 79 760 93 780 91.5C800 90 820 73 840 71.3C860 69.7 880 83.3 890 90.2L900 97L900 0L890 0C880 0 860 0 840 0C820 0 800 0 780 0C760 0 740 0 720 0C700 0 680 0 660 0C640 0 620 0 600 0C580 0 560 0 540 0C520 0 500 0 480 0C460 0 440 0 420 0C400 0 380 0 360 0C340 0 320 0 300 0C280 0 260 0 240 0C220 0 200 0 180 0C160 0 140 0 120 0C100 0 80 0 60 0C40 0 20 0 10 0L0 0Z" fill="#c77dff"></path><path d="M0 50L10 55.3C20 60.7 40 71.3 60 78.5C80 85.7 100 89.3 120 85.2C140 81 160 69 180 61.2C200 53.3 220 49.7 240 47.7C260 45.7 280 45.3 300 49.8C320 54.3 340 63.7 360 70.8C380 78 400 83 420 80.7C440 78.3 460 68.7 480 68.2C500 67.7 520 76.3 540 79C560 81.7 580 78.3 600 76.8C620 75.3 640 75.7 660 71.7C680 67.7 700 59.3 720 54.8C740 50.3 760 49.7 780 50.3C800 51 820 53 840 52.8C860 52.7 880 50.3 890 49.2L900 48L900 0L890 0C880 0 860 0 840 0C820 0 800 0 780 0C760 0 740 0 720 0C700 0 680 0 660 0C640 0 620 0 600 0C580 0 560 0 540 0C520 0 500 0 480 0C460 0 440 0 420 0C400 0 380 0 360 0C340 0 320 0 300 0C280 0 260 0 240 0C220 0 200 0 180 0C160 0 140 0 120 0C100 0 80 0 60 0C40 0 20 0 10 0L0 0Z" fill="#b469ef"></path><path d="M0 54L10 53.8C20 53.7 40 53.3 60 52.2C80 51 100 49 120 46.5C140 44 160 41 180 43.5C200 46 220 54 240 53C260 52 280 42 300 41.8C320 41.7 340 51.3 360 51.5C380 51.7 400 42.3 420 41.3C440 40.3 460 47.7 480 52C500 56.3 520 57.7 540 57.7C560 57.7 580 56.3 600 58.5C620 60.7 640 66.3 660 67.3C680 68.3 700 64.7 720 58C740 51.3 760 41.7 780 41.7C800 41.7 820 51.3 840 56.5C860 61.7 880 62.3 890 62.7L900 63L900 0L890 0C880 0 860 0 840 0C820 0 800 0 780 0C760 0 740 0 720 0C700 0 680 0 660 0C640 0 620 0 600 0C580 0 560 0 540 0C520 0 500 0 480 0C460 0 440 0 420 0C400 0 380 0 360 0C340 0 320 0 300 0C280 0 260 0 240 0C220 0 200 0 180 0C160 0 140 0 120 0C100 0 80 0 60 0C40 0 20 0 10 0L0 0Z" fill="#a155df"></path><path d="M0 30L10 33C20 36 40 42 60 43C80 44 100 40 120 40.2C140 40.3 160 44.7 180 46.5C200 48.3 220 47.7 240 44.5C260 41.3 280 35.7 300 33.7C320 31.7 340 33.3 360 32.2C380 31 400 27 420 28.8C440 30.7 460 38.3 480 38.8C500 39.3 520 32.7 540 28.7C560 24.7 580 23.3 600 23.5C620 23.7 640 25.3 660 30C680 34.7 700 42.3 720 43.5C740 44.7 760 39.3 780 38C800 36.7 820 39.3 840 40.5C860 41.7 880 41.3 890 41.2L900 41L900 0L890 0C880 0 860 0 840 0C820 0 800 0 780 0C760 0 740 0 720 0C700 0 680 0 660 0C640 0 620 0 600 0C580 0 560 0 540 0C520 0 500 0 480 0C460 0 440 0 420 0C400 0 380 0 360 0C340 0 320 0 300 0C280 0 260 0 240 0C220 0 200 0 180 0C160 0 140 0 120 0C100 0 80 0 60 0C40 0 20 0 10 0L0 0Z" fill="#8e41cf"></path><path d="M0 15L10 15.5C20 16 40 17 60 19.5C80 22 100 26 120 27.2C140 28.3 160 26.7 180 24.7C200 22.7 220 20.3 240 20.8C260 21.3 280 24.7 300 26C320 27.3 340 26.7 360 24C380 21.3 400 16.7 420 15.8C440 15 460 18 480 19.2C500 20.3 520 19.7 540 18.5C560 17.3 580 15.7 600 15.8C620 16 640 18 660 19.3C680 20.7 700 21.3 720 20C740 18.7 760 15.3 780 17.2C800 19 820 26 840 26C860 26 880 19 890 15.5L900 12L900 0L890 0C880 0 860 0 840 0C820 0 800 0 780 0C760 0 740 0 720 0C700 0 680 0 660 0C640 0 620 0 600 0C580 0 560 0 540 0C520 0 500 0 480 0C460 0 440 0 420 0C400 0 380 0 360 0C340 0 320 0 300 0C280 0 260 0 240 0C220 0 200 0 180 0C160 0 140 0 120 0C100 0 80 0 60 0C40 0 20 0 10 0L0 0Z" fill="#7b2cbf"></path></svg>