<svg id="visual" viewBox="0 0 500 1200" width="500" height="1200" xmlns="http://www.w3.org/2000/svg" xmlns:xlink="http://www.w3.org/1999/xlink" version="1.1"><rect x="0" y="0" width="500" height="1200" fill="#001220"></rect><path d="M0 246L11.8 240.7C23.7 235.3 47.3 224.7 71.2 233C95 241.3 119 268.7 142.8 265.3C166.7 262 190.3 228 214.2 215.3C238 202.7 262 211.3 285.8 210.7C309.7 210 333.3 200 357.2 210C381 220 405 250 428.8 256.5C452.7 263 476.3 246 488.2 237.5L500 229L500 0L488.2 0C476.3 0 452.7 0 428.8 0C405 0 381 0 357.2 0C333.3 0 309.7 0 285.8 0C262 0 238 0 214.2 0C190.3 0 166.7 0 142.8 0C119 0 95 0 71.2 0C47.3 0 23.7 0 11.8 0L0 0Z" fill="#7b2cbf"></path><path d="M0 196L11.8 194.2C23.7 192.3 47.3 188.7 71.2 187.2C95 185.7 119 186.3 142.8 191.2C166.7 196 190.3 205 214.2 198.3C238 191.7 262 169.3 285.8 162.5C309.7 155.7 333.3 164.3 357.2 170.2C381 176 405 179 428.8 190.7C452.7 202.3 476.3 222.7 488.2 232.8L500 243L500 0L488.2 0C476.3 0 452.7 0 428.8 0C405 0 381 0 357.2 0C333.3 0 309.7 0 285.8 0C262 0 238 0 214.2 0C190.3 0 166.7 0 142.8 0C119 0 95 0 71.2 0C47.3 0 23.7 0 11.8 0L0 0Z" fill="#8e41cf"></path><path d="M0 104L11.8 110.5C23.7 117 47.3 130 71.2 138.8C95 147.7 119 152.3 142.8 158.8C166.7 165.3 190.3 173.7 214.2 175C238 176.3 262 170.7 285.8 172C309.7 173.3 333.3 181.7 357.2 183.2C381 184.7 405 179.3 428.8 178.5C452.7 177.7 476.3 181.3 488.2 183.2L500 185L500 0L488.2 0C476.3 0 452.7 0 428.8 0C405 0 381 0 357.2 0C333.3 0 309.7 0 285.8 0C262 0 238 0 214.2 0C190.3 0 166.7 0 142.8 0C119 0 95 0 71.2 0C47.3 0 23.7 0 11.8 0L0 0Z" fill="#a155df"></path><path d="M0 129L11.8 127.8C23.7 126.7 47.3 124.3 71.2 125.2C95 126 119 130 142.8 121.7C166.7 113.3 190.3 92.7 214.2 82.2C238 71.7 262 71.3 285.8 73.3C309.7 75.3 333.3 79.7 357.2 83.8C381 88 405 92 428.8 96.2C452.7 100.3 476.3 104.7 488.2 106.8L500 109L500 0L488.2 0C476.3 0 452.7 0 428.8 0C405 0 381 0 357.2 0C333.3 0 309.7 0 285.8 0C262 0 238 0 214.2 0C190.3 0 166.7 0 142.8 0C119 0 95 0 71.2 0C47.3 0 23.7 0 11.8 0L0 0Z" fill="#b469ef"></path><path d="M0 73L11.8 75.5C23.7 78 47.3 83 71.2 80.7C95 78.3 119 68.7 142.8 60.7C166.7 52.7 190.3 46.3 214.2 50C238 53.7 262 67.3 285.8 75.5C309.7 83.7 333.3 86.3 357.2 84.3C381 82.3 405 75.7 428.8 74.5C452.7 73.3 476.3 77.7 488.2 79.8L500 82L500 0L488.2 0C476.3 0 452.7 0 428.8 0C405 0 381 0 357.2 0C333.3 0 309.7 0 285.8 0C262 0 238 0 214.2 0C190.3 0 166.7 0 142.8 0C119 0 95 0 71.2 0C47.3 0 23.7 0 11.8 0L0 0Z" fill="#c77dff"></path></svg>